<?xml version="1.0" encoding="UTF-8" standalone="no"?>
<!DOCTYPE svg PUBLIC "-//W3C//DTD SVG 1.1//EN"
 "http://www.w3.org/Graphics/SVG/1.1/DTD/svg11.dtd">
<!-- Generated by graphviz version 2.43.0 (0)
 -->
<!-- Title: mudpi_network Pages: 1 -->
<svg width="2185pt" height="660pt"
 viewBox="0.00 0.00 2185.00 660.01" xmlns="http://www.w3.org/2000/svg" xmlns:xlink="http://www.w3.org/1999/xlink">
<g id="graph0" class="graph" transform="scale(1 1) rotate(0) translate(18 642.01)">
<title>mudpi_network</title>
<polygon fill="white" stroke="transparent" points="-18,18 -18,-642.01 2167,-642.01 2167,18 -18,18"/>
<text text-anchor="middle" x="1074.5" y="-604.01" font-family="Helvetica,sans-Serif" font-size="20.00">MudPi Distributed Network</text>
<g id="clust1" class="cluster">
<title>cluster_vpn</title>
<path fill="none" stroke="black" stroke-width="1.5" stroke-dasharray="5,2" d="M20,-20.5C20,-20.5 314,-20.5 314,-20.5 320,-20.5 326,-26.5 326,-32.5 326,-32.5 326,-400 326,-400 326,-406 320,-412 314,-412 314,-412 20,-412 20,-412 14,-412 8,-406 8,-400 8,-400 8,-32.5 8,-32.5 8,-26.5 14,-20.5 20,-20.5"/>
<text text-anchor="start" x="154.5" y="-399.4" font-family="Helvetica,sans-Serif" font-weight="bold" font-size="12.00">vpn</text>
<text text-anchor="start" x="121" y="-387.4" font-family="Helvetica,sans-Serif" font-size="12.00">vpn.home.arpa</text>
<text text-anchor="start" x="108" y="-375.4" font-family="Helvetica,sans-Serif" font-size="12.00">Overlay 10.8.1.0/24</text>
<text text-anchor="start" x="128.5" y="-363.4" font-family="Helvetica,sans-Serif" font-size="12.00">Hub 10.8.1.1</text>
<text text-anchor="start" x="133.5" y="-351.4" font-family="Helvetica,sans-Serif" font-size="12.00">DNS mudpi</text>
</g>
<g id="clust2" class="cluster">
<title>cluster_reid</title>
<path fill="none" stroke="black" stroke-width="1.5" d="M358,-211.5C358,-211.5 731,-211.5 731,-211.5 737,-211.5 743,-217.5 743,-223.5 743,-223.5 743,-574.01 743,-574.01 743,-580.01 737,-586.01 731,-586.01 731,-586.01 358,-586.01 358,-586.01 352,-586.01 346,-580.01 346,-574.01 346,-574.01 346,-223.5 346,-223.5 346,-217.5 352,-211.5 358,-211.5"/>
<text text-anchor="start" x="531" y="-573.41" font-family="Helvetica,sans-Serif" font-weight="bold" font-size="12.00">reid</text>
<text text-anchor="start" x="498" y="-561.41" font-family="Helvetica,sans-Serif" font-size="12.00">reid.home.arpa</text>
<text text-anchor="start" x="496.5" y="-549.41" font-family="Helvetica,sans-Serif" font-size="12.00">LAN 10.1.1.0/24</text>
<text text-anchor="start" x="507.5" y="-537.41" font-family="Helvetica,sans-Serif" font-size="12.00">GW 10.1.1.1</text>
<text text-anchor="start" x="511" y="-525.41" font-family="Helvetica,sans-Serif" font-size="12.00">DNS mudpi</text>
<text text-anchor="start" x="506.5" y="-513.41" font-family="Helvetica,sans-Serif" font-size="12.00">DHCP mudpi</text>
</g>
<g id="clust3" class="cluster">
<title>cluster_barkingowl</title>
<path fill="none" stroke="black" stroke-width="1.5" d="M763,-8C763,-8 1195,-8 1195,-8 1201,-8 1207,-14 1207,-20 1207,-20 1207,-373.01 1207,-373.01 1207,-379.01 1201,-385.01 1195,-385.01 1195,-385.01 763,-385.01 763,-385.01 757,-385.01 751,-379.01 751,-373.01 751,-373.01 751,-20 751,-20 751,-14 757,-8 763,-8"/>
<text text-anchor="start" x="941.5" y="-372.41" font-family="Helvetica,sans-Serif" font-weight="bold" font-size="12.00">barkingowl</text>
<text text-anchor="start" x="911" y="-360.41" font-family="Helvetica,sans-Serif" font-size="12.00">barkingowl.home.arpa</text>
<text text-anchor="start" x="920" y="-348.41" font-family="Helvetica,sans-Serif" font-size="12.00">LAN 192.168.0.0/24</text>
<text text-anchor="start" x="930.5" y="-336.41" font-family="Helvetica,sans-Serif" font-size="12.00">GW 192.168.0.1</text>
<text text-anchor="start" x="944.5" y="-324.41" font-family="Helvetica,sans-Serif" font-size="12.00">DNS shedpi</text>
<text text-anchor="start" x="940.5" y="-312.41" font-family="Helvetica,sans-Serif" font-size="12.00">DHCP shedpi</text>
</g>
<g id="clust4" class="cluster">
<title>cluster_trilogy</title>
<path fill="none" stroke="black" stroke-width="1.5" d="M1511,-8C1511,-8 1889,-8 1889,-8 1895,-8 1901,-14 1901,-20 1901,-20 1901,-373.01 1901,-373.01 1901,-379.01 1895,-385.01 1889,-385.01 1889,-385.01 1511,-385.01 1511,-385.01 1505,-385.01 1499,-379.01 1499,-373.01 1499,-373.01 1499,-20 1499,-20 1499,-14 1505,-8 1511,-8"/>
<text text-anchor="start" x="1678" y="-372.41" font-family="Helvetica,sans-Serif" font-weight="bold" font-size="12.00">trilogy</text>
<text text-anchor="start" x="1647" y="-360.41" font-family="Helvetica,sans-Serif" font-size="12.00">trilogy.home.arpa</text>
<text text-anchor="start" x="1637" y="-348.41" font-family="Helvetica,sans-Serif" font-size="12.00">LAN 192.168.98.0/24</text>
<text text-anchor="start" x="1648" y="-336.41" font-family="Helvetica,sans-Serif" font-size="12.00">GW 192.168.98.1</text>
<text text-anchor="start" x="1661" y="-324.41" font-family="Helvetica,sans-Serif" font-size="12.00">DNS boatdns</text>
<text text-anchor="start" x="1657" y="-312.41" font-family="Helvetica,sans-Serif" font-size="12.00">DHCP boatdns</text>
</g>
<g id="clust5" class="cluster">
<title>cluster_testboat</title>
<path fill="none" stroke="black" stroke-width="1.5" d="M1933,-8C1933,-8 2129,-8 2129,-8 2135,-8 2141,-14 2141,-20 2141,-20 2141,-373.01 2141,-373.01 2141,-379.01 2135,-385.01 2129,-385.01 2129,-385.01 1933,-385.01 1933,-385.01 1927,-385.01 1921,-379.01 1921,-373.01 1921,-373.01 1921,-20 1921,-20 1921,-14 1927,-8 1933,-8"/>
<text text-anchor="start" x="2001.5" y="-372.41" font-family="Helvetica,sans-Serif" font-weight="bold" font-size="12.00">testboat</text>
<text text-anchor="start" x="1971" y="-360.41" font-family="Helvetica,sans-Serif" font-size="12.00">testboat.home.arpa</text>
<text text-anchor="start" x="1968" y="-348.41" font-family="Helvetica,sans-Serif" font-size="12.00">LAN 192.168.97.0/24</text>
<text text-anchor="start" x="1979" y="-336.41" font-family="Helvetica,sans-Serif" font-size="12.00">GW 192.168.97.1</text>
<text text-anchor="start" x="1996.5" y="-324.41" font-family="Helvetica,sans-Serif" font-size="12.00">DNS labdns</text>
<text text-anchor="start" x="1992.5" y="-312.41" font-family="Helvetica,sans-Serif" font-size="12.00">DHCP labdns</text>
</g>
<!-- host_vpn_laptop -->
<g id="node1" class="node">
<title>host_vpn_laptop</title>
<polygon fill="white" stroke="transparent" points="231.5,-122.5 30.5,-122.5 30.5,-28.5 231.5,-28.5 231.5,-122.5"/>
<polygon fill="none" stroke="black" points="32,-98.5 32,-121.5 231,-121.5 231,-98.5 32,-98.5"/>
<text text-anchor="start" x="113" y="-108.5" font-family="Helvetica,sans-Serif" font-weight="bold" font-size="10.00">laptop</text>
<polygon fill="none" stroke="black" points="32,-75.5 32,-98.5 231,-98.5 231,-75.5 32,-75.5"/>
<text text-anchor="start" x="77.5" y="-84.5" font-family="Helvetica,sans-Serif" font-size="10.00">laptop.vpn.home.arpa</text>
<polygon fill="none" stroke="black" points="32,-52.5 32,-75.5 231,-75.5 231,-52.5 32,-52.5"/>
<text text-anchor="start" x="38" y="-61.5" font-family="Helvetica,sans-Serif" font-size="10.00">VPN 10.8.1.20 (laptop.vpn.home.arpa)</text>
<polygon fill="none" stroke="black" points="32,-29.5 32,-52.5 231,-52.5 231,-29.5 32,-29.5"/>
<text text-anchor="start" x="38" y="-38.5" font-family="Helvetica,sans-Serif" font-size="10.00">roaming&#45;client</text>
<polygon fill="none" stroke="black" points="30.5,-28.5 30.5,-122.5 231.5,-122.5 231.5,-28.5 30.5,-28.5"/>
</g>
<!-- host_reid_mudpi -->
<g id="node2" class="node">
<title>host_reid_mudpi</title>
<polygon fill="white" stroke="transparent" stroke-width="2" points="318,-336 16,-336 16,-217 318,-217 318,-336"/>
<polygon fill="none" stroke="black" points="18,-310.5 18,-333.5 316,-333.5 316,-310.5 18,-310.5"/>
<text text-anchor="start" x="148.5" y="-320.5" font-family="Helvetica,sans-Serif" font-weight="bold" font-size="10.00">mudpi</text>
<polygon fill="none" stroke="black" points="18,-287.5 18,-310.5 316,-310.5 316,-287.5 18,-287.5"/>
<text text-anchor="start" x="112.5" y="-296.5" font-family="Helvetica,sans-Serif" font-size="10.00">mudpi.reid.home.arpa</text>
<polygon fill="none" stroke="black" points="18,-264.5 18,-287.5 316,-287.5 316,-264.5 18,-264.5"/>
<text text-anchor="start" x="24" y="-273.5" font-family="Helvetica,sans-Serif" font-size="10.00">LAN 10.1.1.10</text>
<polygon fill="none" stroke="black" points="18,-241.5 18,-264.5 316,-264.5 316,-241.5 18,-241.5"/>
<text text-anchor="start" x="24" y="-250.5" font-family="Helvetica,sans-Serif" font-size="10.00">VPN 10.8.1.1 (mudpi.vpn.home.arpa)</text>
<polygon fill="none" stroke="black" points="18,-218.5 18,-241.5 316,-241.5 316,-218.5 18,-218.5"/>
<text text-anchor="start" x="24" y="-227.5" font-family="Helvetica,sans-Serif" font-size="10.00">wireguard&#45;hub • dns • dhcp • ntp&#45;stratum1 • dynamic&#45;dns</text>
<polygon fill="none" stroke="black" stroke-width="2" points="17,-218 17,-335 317,-335 317,-218 17,-218"/>
</g>
<!-- host_reid_mudpi&#45;&gt;host_vpn_laptop -->
<g id="edge12" class="edge">
<title>host_reid_mudpi&#45;&gt;host_vpn_laptop</title>
<path fill="none" stroke="black" stroke-width="1.4" stroke-dasharray="5,2" d="M138.33,-207.76C131.93,-192.64 127,-181 127,-181 127,-181 127,-171 127,-171 127,-171 127.76,-153 128.62,-132.72"/>
<polygon fill="black" stroke="black" stroke-width="1.4" points="135.12,-209.15 142.24,-217 141.56,-206.42 135.12,-209.15"/>
<polygon fill="black" stroke="black" stroke-width="1.4" points="132.12,-132.78 129.05,-122.64 125.13,-132.49 132.12,-132.78"/>
<text text-anchor="middle" x="151.5" y="-173.8" font-family="Helvetica,sans-Serif" font-size="9.00">WireGuard</text>
</g>
<!-- host_barkingowl_shedpi -->
<g id="node6" class="node">
<title>host_barkingowl_shedpi</title>
<polygon fill="white" stroke="transparent" stroke-width="2" points="963,-135 759,-135 759,-16 963,-16 963,-135"/>
<polygon fill="none" stroke="black" points="761,-109.5 761,-132.5 961,-132.5 961,-109.5 761,-109.5"/>
<text text-anchor="start" x="841.5" y="-119.5" font-family="Helvetica,sans-Serif" font-weight="bold" font-size="10.00">shedpi</text>
<polygon fill="none" stroke="black" points="761,-86.5 761,-109.5 961,-109.5 961,-86.5 761,-86.5"/>
<text text-anchor="start" x="788.5" y="-95.5" font-family="Helvetica,sans-Serif" font-size="10.00">shedpi.barkingowl.home.arpa</text>
<polygon fill="none" stroke="black" points="761,-63.5 761,-86.5 961,-86.5 961,-63.5 761,-63.5"/>
<text text-anchor="start" x="767" y="-72.5" font-family="Helvetica,sans-Serif" font-size="10.00">LAN 192.168.0.10</text>
<polygon fill="none" stroke="black" points="761,-40.5 761,-63.5 961,-63.5 961,-40.5 761,-40.5"/>
<text text-anchor="start" x="767" y="-49.5" font-family="Helvetica,sans-Serif" font-size="10.00">VPN 10.8.1.30 (shedpi.vpn.home.arpa)</text>
<polygon fill="none" stroke="black" points="761,-17.5 761,-40.5 961,-40.5 961,-17.5 761,-17.5"/>
<text text-anchor="start" x="767" y="-26.5" font-family="Helvetica,sans-Serif" font-size="10.00">dns • dhcp • farm&#45;server</text>
<polygon fill="none" stroke="black" stroke-width="2" points="760,-17 760,-134 962,-134 962,-17 760,-17"/>
</g>
<!-- host_reid_mudpi&#45;&gt;host_barkingowl_shedpi -->
<g id="edge9" class="edge">
<title>host_reid_mudpi&#45;&gt;host_barkingowl_shedpi</title>
<path fill="none" stroke="black" stroke-width="1.4" stroke-dasharray="5,2" d="M199.41,-207.76C209.01,-187.7 217,-171 217,-171 217,-171 564.46,-120.01 748.94,-92.94"/>
<polygon fill="black" stroke="black" stroke-width="1.4" points="196.23,-206.3 195.07,-216.84 202.54,-209.33 196.23,-206.3"/>
<polygon fill="black" stroke="black" stroke-width="1.4" points="749.57,-96.39 758.96,-91.47 748.55,-89.46 749.57,-96.39"/>
<text text-anchor="middle" x="241.5" y="-173.8" font-family="Helvetica,sans-Serif" font-size="9.00">WireGuard</text>
</g>
<!-- host_reid_mudpi&#45;&gt;host_barkingowl_shedpi -->
<g id="edge13" class="edge">
<title>host_reid_mudpi&#45;&gt;host_barkingowl_shedpi</title>
<path fill="none" stroke="black" stroke-dasharray="1,5" d="M245.59,-216.84C277.51,-193.01 307,-171 307,-171 307,-171 586.83,-123.27 748.73,-95.65"/>
<polygon fill="black" stroke="black" points="749.47,-99.07 758.74,-93.94 748.3,-92.17 749.47,-99.07"/>
<text text-anchor="middle" x="388" y="-173.8" font-family="Helvetica,sans-Serif" font-size="9.00">DNS forward barkingowl.home.arpa</text>
</g>
<!-- host_trilogy_boatdns -->
<g id="node9" class="node">
<title>host_trilogy_boatdns</title>
<polygon fill="white" stroke="transparent" stroke-width="2" points="1718.5,-135 1507.5,-135 1507.5,-16 1718.5,-16 1718.5,-135"/>
<polygon fill="none" stroke="black" points="1510,-109.5 1510,-132.5 1717,-132.5 1717,-109.5 1510,-109.5"/>
<text text-anchor="start" x="1590.5" y="-119.5" font-family="Helvetica,sans-Serif" font-weight="bold" font-size="10.00">boatdns</text>
<polygon fill="none" stroke="black" points="1510,-86.5 1510,-109.5 1717,-109.5 1717,-86.5 1510,-86.5"/>
<text text-anchor="start" x="1549.5" y="-95.5" font-family="Helvetica,sans-Serif" font-size="10.00">boatdns.trilogy.home.arpa</text>
<polygon fill="none" stroke="black" points="1510,-63.5 1510,-86.5 1717,-86.5 1717,-63.5 1510,-63.5"/>
<text text-anchor="start" x="1516" y="-72.5" font-family="Helvetica,sans-Serif" font-size="10.00">LAN 192.168.98.10</text>
<polygon fill="none" stroke="black" points="1510,-40.5 1510,-63.5 1717,-63.5 1717,-40.5 1510,-40.5"/>
<text text-anchor="start" x="1516" y="-49.5" font-family="Helvetica,sans-Serif" font-size="10.00">VPN 10.8.1.40 (boatdns.vpn.home.arpa)</text>
<polygon fill="none" stroke="black" points="1510,-17.5 1510,-40.5 1717,-40.5 1717,-17.5 1510,-17.5"/>
<text text-anchor="start" x="1516" y="-26.5" font-family="Helvetica,sans-Serif" font-size="10.00">dns • dhcp</text>
<polygon fill="none" stroke="black" stroke-width="2" points="1508.5,-17 1508.5,-134 1717.5,-134 1717.5,-17 1508.5,-17"/>
</g>
<!-- host_reid_mudpi&#45;&gt;host_trilogy_boatdns -->
<g id="edge10" class="edge">
<title>host_reid_mudpi&#45;&gt;host_trilogy_boatdns</title>
<path fill="none" stroke="black" stroke-width="1.4" stroke-dasharray="5,2" d="M327.65,-215.02C333.56,-212.8 337,-211.5 337,-211.5 337,-211.5 474,-181 474,-181 474,-181 510,-171 510,-171 510,-171 1216,-135 1216,-135 1216,-135 1380.08,-110.82 1497.27,-93.55"/>
<polygon fill="black" stroke="black" stroke-width="1.4" points="326.28,-211.79 318.16,-218.59 328.75,-218.35 326.28,-211.79"/>
<polygon fill="black" stroke="black" stroke-width="1.4" points="1498.01,-96.98 1507.39,-92.06 1496.99,-90.06 1498.01,-96.98"/>
<text text-anchor="middle" x="534.5" y="-173.8" font-family="Helvetica,sans-Serif" font-size="9.00">WireGuard</text>
</g>
<!-- host_reid_mudpi&#45;&gt;host_trilogy_boatdns -->
<g id="edge15" class="edge">
<title>host_reid_mudpi&#45;&gt;host_trilogy_boatdns</title>
<path fill="none" stroke="black" stroke-dasharray="1,5" d="M318.16,-218.59C329.71,-214.24 337,-211.5 337,-211.5 337,-211.5 1216,-135 1216,-135 1216,-135 1380.08,-110.82 1497.27,-93.55"/>
<polygon fill="black" stroke="black" points="1498.01,-96.98 1507.39,-92.06 1496.99,-90.06 1498.01,-96.98"/>
<text text-anchor="middle" x="845.5" y="-173.8" font-family="Helvetica,sans-Serif" font-size="9.00">DNS forward trilogy.home.arpa</text>
</g>
<!-- host_testboat_labdns -->
<g id="node12" class="node">
<title>host_testboat_labdns</title>
<polygon fill="white" stroke="transparent" stroke-width="2" points="2133,-135 1929,-135 1929,-16 2133,-16 2133,-135"/>
<polygon fill="none" stroke="black" points="1931,-109.5 1931,-132.5 2131,-132.5 2131,-109.5 1931,-109.5"/>
<text text-anchor="start" x="2011.5" y="-119.5" font-family="Helvetica,sans-Serif" font-weight="bold" font-size="10.00">labdns</text>
<polygon fill="none" stroke="black" points="1931,-86.5 1931,-109.5 2131,-109.5 2131,-86.5 1931,-86.5"/>
<text text-anchor="start" x="1965" y="-95.5" font-family="Helvetica,sans-Serif" font-size="10.00">labdns.testboat.home.arpa</text>
<polygon fill="none" stroke="black" points="1931,-63.5 1931,-86.5 2131,-86.5 2131,-63.5 1931,-63.5"/>
<text text-anchor="start" x="1937" y="-72.5" font-family="Helvetica,sans-Serif" font-size="10.00">LAN 192.168.97.10</text>
<polygon fill="none" stroke="black" points="1931,-40.5 1931,-63.5 2131,-63.5 2131,-40.5 1931,-40.5"/>
<text text-anchor="start" x="1937" y="-49.5" font-family="Helvetica,sans-Serif" font-size="10.00">VPN 10.8.1.50 (labdns.vpn.home.arpa)</text>
<polygon fill="none" stroke="black" points="1931,-17.5 1931,-40.5 2131,-40.5 2131,-17.5 1931,-17.5"/>
<text text-anchor="start" x="1937" y="-26.5" font-family="Helvetica,sans-Serif" font-size="10.00">dns • dhcp</text>
<polygon fill="none" stroke="black" stroke-width="2" points="1930,-17 1930,-134 2132,-134 2132,-17 1930,-17"/>
</g>
<!-- host_reid_mudpi&#45;&gt;host_testboat_labdns -->
<g id="edge11" class="edge">
<title>host_reid_mudpi&#45;&gt;host_testboat_labdns</title>
<path fill="none" stroke="black" stroke-width="1.4" stroke-dasharray="5,2" d="M327.65,-215.02C333.56,-212.8 337,-211.5 337,-211.5 337,-211.5 1402,-181 1402,-181 1402,-181 1910,-135 1910,-135 1910,-135 1913.74,-133.19 1919.9,-130.21"/>
<polygon fill="black" stroke="black" stroke-width="1.4" points="326.28,-211.79 318.16,-218.59 328.75,-218.35 326.28,-211.79"/>
<polygon fill="black" stroke="black" stroke-width="1.4" points="1921.43,-133.36 1928.91,-125.86 1918.38,-127.06 1921.43,-133.36"/>
<text text-anchor="middle" x="1535.5" y="-173.8" font-family="Helvetica,sans-Serif" font-size="9.00">WireGuard</text>
</g>
<!-- host_reid_mudpi&#45;&gt;host_testboat_labdns -->
<g id="edge14" class="edge">
<title>host_reid_mudpi&#45;&gt;host_testboat_labdns</title>
<path fill="none" stroke="black" stroke-dasharray="1,5" d="M318.16,-218.59C329.71,-214.24 337,-211.5 337,-211.5 337,-211.5 1910,-135 1910,-135 1910,-135 1913.74,-133.19 1919.9,-130.21"/>
<polygon fill="black" stroke="black" points="1921.43,-133.36 1928.91,-125.86 1918.38,-127.06 1921.43,-133.36"/>
<text text-anchor="middle" x="1198" y="-173.8" font-family="Helvetica,sans-Serif" font-size="9.00">DNS forward testboat.home.arpa</text>
</g>
<!-- host_reid_router -->
<g id="node3" class="node">
<title>host_reid_router</title>
<polygon fill="white" stroke="black" stroke-width="1.6" points="494,-333.5 358,-333.5 354,-329.5 354,-219.5 490,-219.5 494,-223.5 494,-333.5"/>
<polyline fill="none" stroke="black" stroke-width="1.6" points="490,-329.5 354,-329.5 "/>
<polyline fill="none" stroke="black" stroke-width="1.6" points="490,-329.5 490,-219.5 "/>
<polyline fill="none" stroke="black" stroke-width="1.6" points="490,-329.5 494,-333.5 "/>
<polygon fill="none" stroke="black" points="365,-299.5 365,-322.5 483,-322.5 483,-299.5 365,-299.5"/>
<text text-anchor="start" x="406" y="-309.5" font-family="Helvetica,sans-Serif" font-weight="bold" font-size="10.00">router</text>
<polygon fill="none" stroke="black" points="365,-276.5 365,-299.5 483,-299.5 483,-276.5 365,-276.5"/>
<text text-anchor="start" x="371" y="-285.5" font-family="Helvetica,sans-Serif" font-size="10.00">router.reid.home.arpa</text>
<polygon fill="none" stroke="black" points="365,-253.5 365,-276.5 483,-276.5 483,-253.5 365,-253.5"/>
<text text-anchor="start" x="371" y="-262.5" font-family="Helvetica,sans-Serif" font-size="10.00">LAN 10.1.1.1</text>
<polygon fill="none" stroke="black" points="365,-230.5 365,-253.5 483,-253.5 483,-230.5 365,-230.5"/>
<text text-anchor="start" x="371" y="-239.5" font-family="Helvetica,sans-Serif" font-size="10.00">gateway</text>
<polygon fill="none" stroke="black" stroke-width="2" points="364,-229.5 364,-323.5 484,-323.5 484,-229.5 364,-229.5"/>
</g>
<!-- host_reid_shorepi -->
<g id="node4" class="node">
<title>host_reid_shorepi</title>
<polygon fill="white" stroke="transparent" stroke-width="1.4" points="735.5,-323.5 530.5,-323.5 530.5,-229.5 735.5,-229.5 735.5,-323.5"/>
<polygon fill="none" stroke="black" points="532,-299.5 532,-322.5 735,-322.5 735,-299.5 532,-299.5"/>
<text text-anchor="start" x="612" y="-309.5" font-family="Helvetica,sans-Serif" font-weight="bold" font-size="10.00">shorepi</text>
<polygon fill="none" stroke="black" points="532,-276.5 532,-299.5 735,-299.5 735,-276.5 532,-276.5"/>
<text text-anchor="start" x="576.5" y="-285.5" font-family="Helvetica,sans-Serif" font-size="10.00">shorepi.reid.home.arpa</text>
<polygon fill="none" stroke="black" points="532,-253.5 532,-276.5 735,-276.5 735,-253.5 532,-253.5"/>
<text text-anchor="start" x="538" y="-262.5" font-family="Helvetica,sans-Serif" font-size="10.00">LAN 10.1.1.20</text>
<polygon fill="none" stroke="black" points="532,-230.5 532,-253.5 735,-253.5 735,-230.5 532,-230.5"/>
<text text-anchor="start" x="538" y="-239.5" font-family="Helvetica,sans-Serif" font-size="10.00">signalk • influxdb • grafana • app&#45;host</text>
<polygon fill="none" stroke="black" points="530.5,-229.5 530.5,-323.5 735.5,-323.5 735.5,-229.5 530.5,-229.5"/>
</g>
<!-- site_reid -->
<g id="node5" class="node">
<title>site_reid</title>
<ellipse fill="none" stroke="black" stroke-dasharray="5,2" cx="424" cy="-477.51" rx="51.74" ry="20.51"/>
<text text-anchor="middle" x="424" y="-475.01" font-family="Helvetica,sans-Serif" font-size="10.00">10.1.1.0/24</text>
</g>
<!-- site_reid&#45;&gt;host_reid_mudpi -->
<g id="edge1" class="edge">
<title>site_reid&#45;&gt;host_reid_mudpi</title>
<path fill="none" stroke="black" d="M400.23,-458.88C374.47,-439.78 337,-412 337,-412 337,-412 286.88,-372.35 241.07,-336.1"/>
</g>
<!-- site_reid&#45;&gt;host_reid_router -->
<g id="edge2" class="edge">
<title>site_reid&#45;&gt;host_reid_router</title>
<path fill="none" stroke="black" d="M424,-456.7C424,-428.28 424,-374.85 424,-333.7"/>
</g>
<!-- site_reid&#45;&gt;host_reid_shorepi -->
<g id="edge3" class="edge">
<title>site_reid&#45;&gt;host_reid_shorepi</title>
<path fill="none" stroke="black" d="M447.58,-459.22C473.65,-440.11 512,-412 512,-412 512,-412 556.36,-362.69 591.36,-323.79"/>
</g>
<!-- host_barkingowl_weatherstation -->
<g id="node7" class="node">
<title>host_barkingowl_weatherstation</title>
<polygon fill="white" stroke="transparent" stroke-width="1.2" points="1198.5,-118.5 999.5,-118.5 999.5,-32.5 1198.5,-32.5 1198.5,-118.5"/>
<polygon fill="none" stroke="black" points="1001,-96.5 1001,-117.5 1198,-117.5 1198,-96.5 1001,-96.5"/>
<text text-anchor="start" x="1057" y="-105.5" font-family="Helvetica,sans-Serif" font-weight="bold" font-size="10.00">weatherstation</text>
<polygon fill="none" stroke="black" points="1001,-75.5 1001,-96.5 1198,-96.5 1198,-75.5 1001,-75.5"/>
<text text-anchor="start" x="1006" y="-83.5" font-family="Helvetica,sans-Serif" font-size="10.00">weatherstation.barkingowl.home.arpa</text>
<polygon fill="none" stroke="black" points="1001,-54.5 1001,-75.5 1198,-75.5 1198,-54.5 1001,-54.5"/>
<text text-anchor="start" x="1006" y="-62.5" font-family="Helvetica,sans-Serif" font-size="10.00">LAN 192.168.0.50</text>
<polygon fill="none" stroke="black" points="1001,-33.5 1001,-54.5 1198,-54.5 1198,-33.5 1001,-33.5"/>
<text text-anchor="start" x="1006" y="-41.5" font-family="Helvetica,sans-Serif" font-size="10.00">weather</text>
<polygon fill="none" stroke="black" points="999.5,-32.5 999.5,-118.5 1198.5,-118.5 1198.5,-32.5 999.5,-32.5"/>
</g>
<!-- site_barkingowl -->
<g id="node8" class="node">
<title>site_barkingowl</title>
<ellipse fill="none" stroke="black" stroke-dasharray="5,2" cx="980" cy="-276.5" rx="64.19" ry="20.51"/>
<text text-anchor="middle" x="980" y="-274" font-family="Helvetica,sans-Serif" font-size="10.00">192.168.0.0/24</text>
</g>
<!-- site_barkingowl&#45;&gt;host_barkingowl_shedpi -->
<g id="edge4" class="edge">
<title>site_barkingowl&#45;&gt;host_barkingowl_shedpi</title>
<path fill="none" stroke="black" d="M968.37,-256.06C951.76,-228.28 920.54,-176.07 896.03,-135.08"/>
</g>
<!-- site_barkingowl&#45;&gt;host_barkingowl_weatherstation -->
<g id="edge5" class="edge">
<title>site_barkingowl&#45;&gt;host_barkingowl_weatherstation</title>
<path fill="none" stroke="black" d="M991.63,-256.06C1010.58,-224.37 1048.54,-160.88 1073.87,-118.53"/>
</g>
<!-- host_trilogy_signalk -->
<g id="node10" class="node">
<title>host_trilogy_signalk</title>
<polygon fill="white" stroke="transparent" stroke-width="1.4" points="1893,-122.5 1755,-122.5 1755,-28.5 1893,-28.5 1893,-122.5"/>
<polygon fill="none" stroke="black" points="1756,-98.5 1756,-121.5 1892,-121.5 1892,-98.5 1756,-98.5"/>
<text text-anchor="start" x="1803" y="-108.5" font-family="Helvetica,sans-Serif" font-weight="bold" font-size="10.00">signalk</text>
<polygon fill="none" stroke="black" points="1756,-75.5 1756,-98.5 1892,-98.5 1892,-75.5 1756,-75.5"/>
<text text-anchor="start" x="1762" y="-84.5" font-family="Helvetica,sans-Serif" font-size="10.00">signalk.trilogy.home.arpa</text>
<polygon fill="none" stroke="black" points="1756,-52.5 1756,-75.5 1892,-75.5 1892,-52.5 1756,-52.5"/>
<text text-anchor="start" x="1762" y="-61.5" font-family="Helvetica,sans-Serif" font-size="10.00">LAN 192.168.98.20</text>
<polygon fill="none" stroke="black" points="1756,-29.5 1756,-52.5 1892,-52.5 1892,-29.5 1756,-29.5"/>
<text text-anchor="start" x="1762" y="-38.5" font-family="Helvetica,sans-Serif" font-size="10.00">signalk</text>
<polygon fill="none" stroke="black" points="1755,-28.5 1755,-122.5 1893,-122.5 1893,-28.5 1755,-28.5"/>
</g>
<!-- site_trilogy -->
<g id="node11" class="node">
<title>site_trilogy</title>
<ellipse fill="none" stroke="black" stroke-dasharray="5,2" cx="1719" cy="-276.5" rx="68.68" ry="20.51"/>
<text text-anchor="middle" x="1719" y="-274" font-family="Helvetica,sans-Serif" font-size="10.00">192.168.98.0/24</text>
</g>
<!-- site_trilogy&#45;&gt;host_trilogy_boatdns -->
<g id="edge6" class="edge">
<title>site_trilogy&#45;&gt;host_trilogy_boatdns</title>
<path fill="none" stroke="black" d="M1708.64,-256.06C1693.85,-228.28 1666.04,-176.07 1644.21,-135.08"/>
</g>
<!-- site_trilogy&#45;&gt;host_trilogy_signalk -->
<g id="edge7" class="edge">
<title>site_trilogy&#45;&gt;host_trilogy_signalk</title>
<path fill="none" stroke="black" d="M1729.26,-256.06C1745.46,-225.35 1777.42,-164.77 1799.72,-122.51"/>
</g>
<!-- site_testboat -->
<g id="node13" class="node">
<title>site_testboat</title>
<ellipse fill="none" stroke="black" stroke-dasharray="5,2" cx="2031" cy="-276.5" rx="68.68" ry="20.51"/>
<text text-anchor="middle" x="2031" y="-274" font-family="Helvetica,sans-Serif" font-size="10.00">192.168.97.0/24</text>
</g>
<!-- site_testboat&#45;&gt;host_testboat_labdns -->
<g id="edge8" class="edge">
<title>site_testboat&#45;&gt;host_testboat_labdns</title>
<path fill="none" stroke="black" d="M2031,-255.69C2031,-227.87 2031,-176.06 2031,-135.28"/>
</g>
</g>
</svg>
