<?xml version="1.0" encoding="UTF-8" standalone="no"?>
<!DOCTYPE svg PUBLIC "-//W3C//DTD SVG 1.1//EN"
 "http://www.w3.org/Graphics/SVG/1.1/DTD/svg11.dtd">
<!-- Generated by graphviz version 2.43.0 (0)
 -->
<!-- Title: mudpi_network Pages: 1 -->
<svg width="2548pt" height="801pt"
 viewBox="0.00 0.00 2548.00 801.00" xmlns="http://www.w3.org/2000/svg" xmlns:xlink="http://www.w3.org/1999/xlink">
<g id="graph0" class="graph" transform="scale(1 1) rotate(0) translate(18 783)">
<title>mudpi_network</title>
<polygon fill="white" stroke="transparent" points="-18,18 -18,-783 2530,-783 2530,18 -18,18"/>
<text text-anchor="middle" x="1256" y="-745" font-family="Helvetica,sans-Serif" font-size="20.00">MudPi Distributed Network (Full)</text>
<g id="clust1" class="cluster">
<title>cluster_vpn</title>
<path fill="none" stroke="black" stroke-width="1.5" stroke-dasharray="5,2" d="M20,-20.5C20,-20.5 314,-20.5 314,-20.5 320,-20.5 326,-26.5 326,-32.5 326,-32.5 326,-440 326,-440 326,-446 320,-452 314,-452 314,-452 20,-452 20,-452 14,-452 8,-446 8,-440 8,-440 8,-32.5 8,-32.5 8,-26.5 14,-20.5 20,-20.5"/>
<text text-anchor="start" x="146" y="-433" font-family="Helvetica,sans-Serif" font-weight="bold" font-size="20.00">vpn</text>
<text text-anchor="start" x="91.5" y="-413" font-family="Helvetica,sans-Serif" font-size="20.00">vpn.home.arpa</text>
<text text-anchor="start" x="68" y="-393" font-family="Helvetica,sans-Serif" font-size="20.00">Overlay 10.8.1.0/24</text>
<text text-anchor="start" x="102.5" y="-373" font-family="Helvetica,sans-Serif" font-size="20.00">Hub 10.8.1.1</text>
<text text-anchor="start" x="110.5" y="-353" font-family="Helvetica,sans-Serif" font-size="20.00">DNS mudpi</text>
</g>
<g id="clust2" class="cluster">
<title>cluster_reid</title>
<path fill="none" stroke="black" stroke-width="1.5" d="M358,-211.5C358,-211.5 1088,-211.5 1088,-211.5 1094,-211.5 1100,-217.5 1100,-223.5 1100,-223.5 1100,-715 1100,-715 1100,-721 1094,-727 1088,-727 1088,-727 358,-727 358,-727 352,-727 346,-721 346,-715 346,-715 346,-223.5 346,-223.5 346,-217.5 352,-211.5 358,-211.5"/>
<text text-anchor="start" x="700.5" y="-708" font-family="Helvetica,sans-Serif" font-weight="bold" font-size="20.00">reid</text>
<text text-anchor="start" x="647.5" y="-688" font-family="Helvetica,sans-Serif" font-size="20.00">reid.home.arpa</text>
<text text-anchor="start" x="643" y="-668" font-family="Helvetica,sans-Serif" font-size="20.00">LAN 10.1.1.0/24</text>
<text text-anchor="start" x="661" y="-648" font-family="Helvetica,sans-Serif" font-size="20.00">GW 10.1.1.1</text>
<text text-anchor="start" x="666.5" y="-628" font-family="Helvetica,sans-Serif" font-size="20.00">DNS mudpi</text>
<text text-anchor="start" x="659.5" y="-608" font-family="Helvetica,sans-Serif" font-size="20.00">DHCP mudpi</text>
</g>
<g id="clust3" class="cluster">
<title>cluster_barkingowl</title>
<path fill="none" stroke="black" stroke-width="1.5" d="M1120,-8C1120,-8 1554,-8 1554,-8 1560,-8 1566,-14 1566,-20 1566,-20 1566,-421.01 1566,-421.01 1566,-427.01 1560,-433.01 1554,-433.01 1554,-433.01 1120,-433.01 1120,-433.01 1114,-433.01 1108,-427.01 1108,-421.01 1108,-421.01 1108,-20 1108,-20 1108,-14 1114,-8 1120,-8"/>
<text text-anchor="start" x="1274" y="-414.01" font-family="Helvetica,sans-Serif" font-weight="bold" font-size="20.00">barkingowl</text>
<text text-anchor="start" x="1225.5" y="-394.01" font-family="Helvetica,sans-Serif" font-size="20.00">barkingowl.home.arpa</text>
<text text-anchor="start" x="1237.5" y="-374.01" font-family="Helvetica,sans-Serif" font-size="20.00">LAN 192.168.0.0/24</text>
<text text-anchor="start" x="1256" y="-354.01" font-family="Helvetica,sans-Serif" font-size="20.00">GW 192.168.0.1</text>
<text text-anchor="start" x="1279" y="-334.01" font-family="Helvetica,sans-Serif" font-size="20.00">DNS shedpi</text>
<text text-anchor="start" x="1272" y="-314.01" font-family="Helvetica,sans-Serif" font-size="20.00">DHCP shedpi</text>
</g>
<g id="clust4" class="cluster">
<title>cluster_trilogy</title>
<path fill="none" stroke="black" stroke-width="1.5" d="M1870,-8C1870,-8 2248,-8 2248,-8 2254,-8 2260,-14 2260,-20 2260,-20 2260,-421.01 2260,-421.01 2260,-427.01 2254,-433.01 2248,-433.01 2248,-433.01 1870,-433.01 1870,-433.01 1864,-433.01 1858,-427.01 1858,-421.01 1858,-421.01 1858,-20 1858,-20 1858,-14 1864,-8 1870,-8"/>
<text text-anchor="start" x="2022" y="-414.01" font-family="Helvetica,sans-Serif" font-weight="bold" font-size="20.00">trilogy</text>
<text text-anchor="start" x="1972" y="-394.01" font-family="Helvetica,sans-Serif" font-size="20.00">trilogy.home.arpa</text>
<text text-anchor="start" x="1953.5" y="-374.01" font-family="Helvetica,sans-Serif" font-size="20.00">LAN 192.168.98.0/24</text>
<text text-anchor="start" x="1971.5" y="-354.01" font-family="Helvetica,sans-Serif" font-size="20.00">GW 192.168.98.1</text>
<text text-anchor="start" x="1994" y="-334.01" font-family="Helvetica,sans-Serif" font-size="20.00">DNS boatdns</text>
<text text-anchor="start" x="1987" y="-314.01" font-family="Helvetica,sans-Serif" font-size="20.00">DHCP boatdns</text>
</g>
<g id="clust5" class="cluster">
<title>cluster_testboat</title>
<path fill="none" stroke="black" stroke-width="1.5" d="M2289,-8C2289,-8 2492,-8 2492,-8 2498,-8 2504,-14 2504,-20 2504,-20 2504,-421.01 2504,-421.01 2504,-427.01 2498,-433.01 2492,-433.01 2492,-433.01 2289,-433.01 2289,-433.01 2283,-433.01 2277,-427.01 2277,-421.01 2277,-421.01 2277,-20 2277,-20 2277,-14 2283,-8 2289,-8"/>
<text text-anchor="start" x="2342" y="-414.01" font-family="Helvetica,sans-Serif" font-weight="bold" font-size="20.00">testboat</text>
<text text-anchor="start" x="2292.5" y="-394.01" font-family="Helvetica,sans-Serif" font-size="20.00">testboat.home.arpa</text>
<text text-anchor="start" x="2285" y="-374.01" font-family="Helvetica,sans-Serif" font-size="20.00">LAN 192.168.97.0/24</text>
<text text-anchor="start" x="2303" y="-354.01" font-family="Helvetica,sans-Serif" font-size="20.00">GW 192.168.97.1</text>
<text text-anchor="start" x="2332.5" y="-334.01" font-family="Helvetica,sans-Serif" font-size="20.00">DNS labdns</text>
<text text-anchor="start" x="2325.5" y="-314.01" font-family="Helvetica,sans-Serif" font-size="20.00">DHCP labdns</text>
</g>
<!-- host_vpn_laptop -->
<g id="node1" class="node">
<title>host_vpn_laptop</title>
<polygon fill="white" stroke="transparent" points="267.5,-122.5 66.5,-122.5 66.5,-28.5 267.5,-28.5 267.5,-122.5"/>
<polygon fill="none" stroke="black" points="68,-98.5 68,-121.5 267,-121.5 267,-98.5 68,-98.5"/>
<text text-anchor="start" x="149" y="-108.5" font-family="Helvetica,sans-Serif" font-weight="bold" font-size="10.00">laptop</text>
<polygon fill="none" stroke="black" points="68,-75.5 68,-98.5 267,-98.5 267,-75.5 68,-75.5"/>
<text text-anchor="start" x="113.5" y="-84.5" font-family="Helvetica,sans-Serif" font-size="10.00">laptop.vpn.home.arpa</text>
<polygon fill="none" stroke="black" points="68,-52.5 68,-75.5 267,-75.5 267,-52.5 68,-52.5"/>
<text text-anchor="start" x="74" y="-61.5" font-family="Helvetica,sans-Serif" font-size="10.00">VPN 10.8.1.20 (laptop.vpn.home.arpa)</text>
<polygon fill="none" stroke="black" points="68,-29.5 68,-52.5 267,-52.5 267,-29.5 68,-29.5"/>
<text text-anchor="start" x="74" y="-38.5" font-family="Helvetica,sans-Serif" font-size="10.00">roaming&#45;client</text>
<polygon fill="none" stroke="black" points="66.5,-28.5 66.5,-122.5 267.5,-122.5 267.5,-28.5 66.5,-28.5"/>
</g>
<!-- host_reid_mudpi -->
<g id="node2" class="node">
<title>host_reid_mudpi</title>
<polygon fill="white" stroke="transparent" stroke-width="2.1" points="318,-336 16,-336 16,-217 318,-217 318,-336"/>
<polygon fill="none" stroke="black" points="18,-310.5 18,-333.5 316,-333.5 316,-310.5 18,-310.5"/>
<text text-anchor="start" x="148.5" y="-320.5" font-family="Helvetica,sans-Serif" font-weight="bold" font-size="10.00">mudpi</text>
<polygon fill="none" stroke="black" points="18,-287.5 18,-310.5 316,-310.5 316,-287.5 18,-287.5"/>
<text text-anchor="start" x="112.5" y="-296.5" font-family="Helvetica,sans-Serif" font-size="10.00">mudpi.reid.home.arpa</text>
<polygon fill="none" stroke="black" points="18,-264.5 18,-287.5 316,-287.5 316,-264.5 18,-264.5"/>
<text text-anchor="start" x="24" y="-273.5" font-family="Helvetica,sans-Serif" font-size="10.00">LAN 10.1.1.10</text>
<polygon fill="none" stroke="black" points="18,-241.5 18,-264.5 316,-264.5 316,-241.5 18,-241.5"/>
<text text-anchor="start" x="24" y="-250.5" font-family="Helvetica,sans-Serif" font-size="10.00">VPN 10.8.1.1 (mudpi.vpn.home.arpa)</text>
<polygon fill="none" stroke="black" points="18,-218.5 18,-241.5 316,-241.5 316,-218.5 18,-218.5"/>
<text text-anchor="start" x="24" y="-227.5" font-family="Helvetica,sans-Serif" font-size="10.00">wireguard&#45;hub • dns • dhcp • ntp&#45;stratum1 • dynamic&#45;dns</text>
<polygon fill="none" stroke="black" stroke-width="2" points="17,-218 17,-335 317,-335 317,-218 17,-218"/>
</g>
<!-- host_reid_mudpi&#45;&gt;host_vpn_laptop -->
<g id="edge14" class="edge">
<title>host_reid_mudpi&#45;&gt;host_vpn_laptop</title>
<path fill="none" stroke="black" stroke-width="1.4" stroke-dasharray="5,2" d="M167,-206.82C167,-182.73 167,-155.97 167,-133"/>
<polygon fill="black" stroke="black" stroke-width="1.4" points="163.5,-206.87 167,-216.87 170.5,-206.87 163.5,-206.87"/>
<polygon fill="black" stroke="black" stroke-width="1.4" points="170.5,-132.73 167,-122.73 163.5,-132.73 170.5,-132.73"/>
<text text-anchor="middle" x="191.5" y="-173.8" font-family="Helvetica,sans-Serif" font-size="9.00">WireGuard</text>
</g>
<!-- host_barkingowl_shedpi -->
<g id="node9" class="node">
<title>host_barkingowl_shedpi</title>
<polygon fill="white" stroke="transparent" stroke-width="2.1" points="1320,-135 1116,-135 1116,-16 1320,-16 1320,-135"/>
<polygon fill="none" stroke="black" points="1118,-109.5 1118,-132.5 1318,-132.5 1318,-109.5 1118,-109.5"/>
<text text-anchor="start" x="1198.5" y="-119.5" font-family="Helvetica,sans-Serif" font-weight="bold" font-size="10.00">shedpi</text>
<polygon fill="none" stroke="black" points="1118,-86.5 1118,-109.5 1318,-109.5 1318,-86.5 1118,-86.5"/>
<text text-anchor="start" x="1145.5" y="-95.5" font-family="Helvetica,sans-Serif" font-size="10.00">shedpi.barkingowl.home.arpa</text>
<polygon fill="none" stroke="black" points="1118,-63.5 1118,-86.5 1318,-86.5 1318,-63.5 1118,-63.5"/>
<text text-anchor="start" x="1124" y="-72.5" font-family="Helvetica,sans-Serif" font-size="10.00">LAN 192.168.0.10</text>
<polygon fill="none" stroke="black" points="1118,-40.5 1118,-63.5 1318,-63.5 1318,-40.5 1118,-40.5"/>
<text text-anchor="start" x="1124" y="-49.5" font-family="Helvetica,sans-Serif" font-size="10.00">VPN 10.8.1.30 (shedpi.vpn.home.arpa)</text>
<polygon fill="none" stroke="black" points="1118,-17.5 1118,-40.5 1318,-40.5 1318,-17.5 1118,-17.5"/>
<text text-anchor="start" x="1124" y="-26.5" font-family="Helvetica,sans-Serif" font-size="10.00">dns • dhcp • farm&#45;server</text>
<polygon fill="none" stroke="black" stroke-width="2" points="1117,-17 1117,-134 1319,-134 1319,-17 1117,-17"/>
</g>
<!-- host_reid_mudpi&#45;&gt;host_barkingowl_shedpi -->
<g id="edge11" class="edge">
<title>host_reid_mudpi&#45;&gt;host_barkingowl_shedpi</title>
<path fill="none" stroke="black" stroke-width="1.4" stroke-dasharray="5,2" d="M327.65,-215.02C333.56,-212.8 337,-211.5 337,-211.5 337,-211.5 493,-171 493,-171 493,-171 901.89,-117.7 1105.53,-91.16"/>
<polygon fill="black" stroke="black" stroke-width="1.4" points="326.28,-211.79 318.16,-218.59 328.75,-218.35 326.28,-211.79"/>
<polygon fill="black" stroke="black" stroke-width="1.4" points="1106.2,-94.6 1115.66,-89.84 1105.29,-87.66 1106.2,-94.6"/>
<text text-anchor="middle" x="517.5" y="-173.8" font-family="Helvetica,sans-Serif" font-size="9.00">WireGuard</text>
</g>
<!-- host_reid_mudpi&#45;&gt;host_barkingowl_shedpi -->
<g id="edge15" class="edge">
<title>host_reid_mudpi&#45;&gt;host_barkingowl_shedpi</title>
<path fill="none" stroke="black" stroke-dasharray="1,5" d="M318.16,-218.59C329.71,-214.24 337,-211.5 337,-211.5 337,-211.5 547,-181 547,-181 547,-181 914.61,-123.75 1105.64,-94"/>
<polygon fill="black" stroke="black" points="1106.38,-97.43 1115.72,-92.43 1105.31,-90.51 1106.38,-97.43"/>
<text text-anchor="middle" x="685" y="-173.8" font-family="Helvetica,sans-Serif" font-size="9.00">DNS forward barkingowl.home.arpa</text>
</g>
<!-- host_trilogy_boatdns -->
<g id="node12" class="node">
<title>host_trilogy_boatdns</title>
<polygon fill="white" stroke="transparent" stroke-width="2.1" points="2077.5,-135 1866.5,-135 1866.5,-16 2077.5,-16 2077.5,-135"/>
<polygon fill="none" stroke="black" points="1869,-109.5 1869,-132.5 2076,-132.5 2076,-109.5 1869,-109.5"/>
<text text-anchor="start" x="1949.5" y="-119.5" font-family="Helvetica,sans-Serif" font-weight="bold" font-size="10.00">boatdns</text>
<polygon fill="none" stroke="black" points="1869,-86.5 1869,-109.5 2076,-109.5 2076,-86.5 1869,-86.5"/>
<text text-anchor="start" x="1908.5" y="-95.5" font-family="Helvetica,sans-Serif" font-size="10.00">boatdns.trilogy.home.arpa</text>
<polygon fill="none" stroke="black" points="1869,-63.5 1869,-86.5 2076,-86.5 2076,-63.5 1869,-63.5"/>
<text text-anchor="start" x="1875" y="-72.5" font-family="Helvetica,sans-Serif" font-size="10.00">LAN 192.168.98.10</text>
<polygon fill="none" stroke="black" points="1869,-40.5 1869,-63.5 2076,-63.5 2076,-40.5 1869,-40.5"/>
<text text-anchor="start" x="1875" y="-49.5" font-family="Helvetica,sans-Serif" font-size="10.00">VPN 10.8.1.40 (boatdns.vpn.home.arpa)</text>
<polygon fill="none" stroke="black" points="1869,-17.5 1869,-40.5 2076,-40.5 2076,-17.5 1869,-17.5"/>
<text text-anchor="start" x="1875" y="-26.5" font-family="Helvetica,sans-Serif" font-size="10.00">dns • dhcp</text>
<polygon fill="none" stroke="black" stroke-width="2" points="1867.5,-17 1867.5,-134 2076.5,-134 2076.5,-17 1867.5,-17"/>
</g>
<!-- host_reid_mudpi&#45;&gt;host_trilogy_boatdns -->
<g id="edge12" class="edge">
<title>host_reid_mudpi&#45;&gt;host_trilogy_boatdns</title>
<path fill="none" stroke="black" stroke-width="1.4" stroke-dasharray="5,2" d="M327.65,-215.02C333.56,-212.8 337,-211.5 337,-211.5 337,-211.5 775,-181 775,-181 775,-181 846,-171 846,-171 846,-171 1575,-135 1575,-135 1575,-135 1739.08,-110.82 1856.27,-93.55"/>
<polygon fill="black" stroke="black" stroke-width="1.4" points="326.28,-211.79 318.16,-218.59 328.75,-218.35 326.28,-211.79"/>
<polygon fill="black" stroke="black" stroke-width="1.4" points="1857.01,-96.98 1866.39,-92.06 1855.99,-90.06 1857.01,-96.98"/>
<text text-anchor="middle" x="870.5" y="-173.8" font-family="Helvetica,sans-Serif" font-size="9.00">WireGuard</text>
</g>
<!-- host_reid_mudpi&#45;&gt;host_trilogy_boatdns -->
<g id="edge17" class="edge">
<title>host_reid_mudpi&#45;&gt;host_trilogy_boatdns</title>
<path fill="none" stroke="black" stroke-dasharray="1,5" d="M318.16,-218.59C329.71,-214.24 337,-211.5 337,-211.5 337,-211.5 900,-181 900,-181 900,-181 1575,-135 1575,-135 1575,-135 1739.08,-110.82 1856.27,-93.55"/>
<polygon fill="black" stroke="black" points="1857.01,-96.98 1866.39,-92.06 1855.99,-90.06 1857.01,-96.98"/>
<text text-anchor="middle" x="1114.5" y="-173.8" font-family="Helvetica,sans-Serif" font-size="9.00">DNS forward trilogy.home.arpa</text>
</g>
<!-- host_testboat_labdns -->
<g id="node15" class="node">
<title>host_testboat_labdns</title>
<polygon fill="white" stroke="transparent" stroke-width="2.1" points="2492,-135 2288,-135 2288,-16 2492,-16 2492,-135"/>
<polygon fill="none" stroke="black" points="2290,-109.5 2290,-132.5 2490,-132.5 2490,-109.5 2290,-109.5"/>
<text text-anchor="start" x="2370.5" y="-119.5" font-family="Helvetica,sans-Serif" font-weight="bold" font-size="10.00">labdns</text>
<polygon fill="none" stroke="black" points="2290,-86.5 2290,-109.5 2490,-109.5 2490,-86.5 2290,-86.5"/>
<text text-anchor="start" x="2324" y="-95.5" font-family="Helvetica,sans-Serif" font-size="10.00">labdns.testboat.home.arpa</text>
<polygon fill="none" stroke="black" points="2290,-63.5 2290,-86.5 2490,-86.5 2490,-63.5 2290,-63.5"/>
<text text-anchor="start" x="2296" y="-72.5" font-family="Helvetica,sans-Serif" font-size="10.00">LAN 192.168.97.10</text>
<polygon fill="none" stroke="black" points="2290,-40.5 2290,-63.5 2490,-63.5 2490,-40.5 2290,-40.5"/>
<text text-anchor="start" x="2296" y="-49.5" font-family="Helvetica,sans-Serif" font-size="10.00">VPN 10.8.1.50 (labdns.vpn.home.arpa)</text>
<polygon fill="none" stroke="black" points="2290,-17.5 2290,-40.5 2490,-40.5 2490,-17.5 2290,-17.5"/>
<text text-anchor="start" x="2296" y="-26.5" font-family="Helvetica,sans-Serif" font-size="10.00">dns • dhcp</text>
<polygon fill="none" stroke="black" stroke-width="2" points="2289,-17 2289,-134 2491,-134 2491,-17 2289,-17"/>
</g>
<!-- host_reid_mudpi&#45;&gt;host_testboat_labdns -->
<g id="edge13" class="edge">
<title>host_reid_mudpi&#45;&gt;host_testboat_labdns</title>
<path fill="none" stroke="black" stroke-width="1.4" stroke-dasharray="5,2" d="M327.65,-215.02C333.56,-212.8 337,-211.5 337,-211.5 337,-211.5 1761,-181 1761,-181 1761,-181 2269,-135 2269,-135 2269,-135 2272.74,-133.19 2278.9,-130.21"/>
<polygon fill="black" stroke="black" stroke-width="1.4" points="326.28,-211.79 318.16,-218.59 328.75,-218.35 326.28,-211.79"/>
<polygon fill="black" stroke="black" stroke-width="1.4" points="2280.43,-133.36 2287.91,-125.86 2277.38,-127.06 2280.43,-133.36"/>
<text text-anchor="middle" x="1894.5" y="-173.8" font-family="Helvetica,sans-Serif" font-size="9.00">WireGuard</text>
</g>
<!-- host_reid_mudpi&#45;&gt;host_testboat_labdns -->
<g id="edge16" class="edge">
<title>host_reid_mudpi&#45;&gt;host_testboat_labdns</title>
<path fill="none" stroke="black" stroke-dasharray="1,5" d="M318.16,-218.59C329.71,-214.24 337,-211.5 337,-211.5 337,-211.5 1193,-181 1193,-181 1193,-181 2269,-135 2269,-135 2269,-135 2272.74,-133.19 2278.9,-130.21"/>
<polygon fill="black" stroke="black" points="2280.43,-133.36 2287.91,-125.86 2277.38,-127.06 2280.43,-133.36"/>
<text text-anchor="middle" x="1500" y="-173.8" font-family="Helvetica,sans-Serif" font-size="9.00">DNS forward testboat.home.arpa</text>
</g>
<!-- host_reid_abbhub -->
<g id="node3" class="node">
<title>host_reid_abbhub</title>
<polygon fill="white" stroke="transparent" stroke-width="1.2" points="912,-323.5 772,-323.5 772,-229.5 912,-229.5 912,-323.5"/>
<polygon fill="none" stroke="black" points="773,-299.5 773,-322.5 911,-322.5 911,-299.5 773,-299.5"/>
<text text-anchor="start" x="820.5" y="-309.5" font-family="Helvetica,sans-Serif" font-weight="bold" font-size="10.00">abbhub</text>
<polygon fill="none" stroke="black" points="773,-276.5 773,-299.5 911,-299.5 911,-276.5 773,-276.5"/>
<text text-anchor="start" x="785" y="-285.5" font-family="Helvetica,sans-Serif" font-size="10.00">abbhub.reid.home.arpa</text>
<polygon fill="none" stroke="black" points="773,-253.5 773,-276.5 911,-276.5 911,-253.5 773,-253.5"/>
<text text-anchor="start" x="779" y="-262.5" font-family="Helvetica,sans-Serif" font-size="10.00">LAN 10.1.1.6</text>
<polygon fill="none" stroke="black" points="773,-230.5 773,-253.5 911,-253.5 911,-230.5 773,-230.5"/>
<text text-anchor="start" x="779" y="-239.5" font-family="Helvetica,sans-Serif" font-size="10.00">solar&#45;monitor • appliance</text>
<polygon fill="none" stroke="black" points="772,-229.5 772,-323.5 912,-323.5 912,-229.5 772,-229.5"/>
</g>
<!-- host_reid_printer -->
<g id="node4" class="node">
<title>host_reid_printer</title>
<polygon fill="white" stroke="transparent" stroke-width="1.2" points="967.5,-591 844.5,-591 844.5,-497 967.5,-497 967.5,-591"/>
<polygon fill="none" stroke="black" points="846,-567 846,-590 967,-590 967,-567 846,-567"/>
<text text-anchor="start" x="886.5" y="-577" font-family="Helvetica,sans-Serif" font-weight="bold" font-size="10.00">printer</text>
<polygon fill="none" stroke="black" points="846,-544 846,-567 967,-567 967,-544 846,-544"/>
<text text-anchor="start" x="852" y="-553" font-family="Helvetica,sans-Serif" font-size="10.00">printer.reid.home.arpa</text>
<polygon fill="none" stroke="black" points="846,-521 846,-544 967,-544 967,-521 846,-521"/>
<text text-anchor="start" x="852" y="-530" font-family="Helvetica,sans-Serif" font-size="10.00">printer • appliance</text>
<polygon fill="none" stroke="black" points="846,-498 846,-521 967,-521 967,-498 846,-498"/>
<text text-anchor="start" x="852" y="-507" font-family="Helvetica,sans-Serif" font-size="10.00">overview: hidden</text>
<polygon fill="none" stroke="black" points="844.5,-497 844.5,-591 967.5,-591 967.5,-497 844.5,-497"/>
</g>
<!-- host_reid_printserver -->
<g id="node5" class="node">
<title>host_reid_printserver</title>
<polygon fill="white" stroke="transparent" stroke-width="1.5" points="1092,-323.5 948,-323.5 948,-229.5 1092,-229.5 1092,-323.5"/>
<polygon fill="none" stroke="black" points="949,-299.5 949,-322.5 1091,-322.5 1091,-299.5 949,-299.5"/>
<text text-anchor="start" x="987.5" y="-309.5" font-family="Helvetica,sans-Serif" font-weight="bold" font-size="10.00">printserver</text>
<polygon fill="none" stroke="black" points="949,-276.5 949,-299.5 1091,-299.5 1091,-276.5 949,-276.5"/>
<text text-anchor="start" x="955" y="-285.5" font-family="Helvetica,sans-Serif" font-size="10.00">printserver.reid.home.arpa</text>
<polygon fill="none" stroke="black" points="949,-253.5 949,-276.5 1091,-276.5 1091,-253.5 949,-253.5"/>
<text text-anchor="start" x="955" y="-262.5" font-family="Helvetica,sans-Serif" font-size="10.00">LAN 10.1.1.30</text>
<polygon fill="none" stroke="black" points="949,-230.5 949,-253.5 1091,-253.5 1091,-230.5 949,-230.5"/>
<text text-anchor="start" x="955" y="-239.5" font-family="Helvetica,sans-Serif" font-size="10.00">print&#45;server • utility</text>
<polygon fill="none" stroke="black" points="948,-229.5 948,-323.5 1092,-323.5 1092,-229.5 948,-229.5"/>
</g>
<!-- host_reid_router -->
<g id="node6" class="node">
<title>host_reid_router</title>
<polygon fill="white" stroke="black" stroke-width="1.8" points="494,-333.5 358,-333.5 354,-329.5 354,-219.5 490,-219.5 494,-223.5 494,-333.5"/>
<polyline fill="none" stroke="black" stroke-width="1.8" points="490,-329.5 354,-329.5 "/>
<polyline fill="none" stroke="black" stroke-width="1.8" points="490,-329.5 490,-219.5 "/>
<polyline fill="none" stroke="black" stroke-width="1.8" points="490,-329.5 494,-333.5 "/>
<polygon fill="none" stroke="black" points="365,-299.5 365,-322.5 483,-322.5 483,-299.5 365,-299.5"/>
<text text-anchor="start" x="406" y="-309.5" font-family="Helvetica,sans-Serif" font-weight="bold" font-size="10.00">router</text>
<polygon fill="none" stroke="black" points="365,-276.5 365,-299.5 483,-299.5 483,-276.5 365,-276.5"/>
<text text-anchor="start" x="371" y="-285.5" font-family="Helvetica,sans-Serif" font-size="10.00">router.reid.home.arpa</text>
<polygon fill="none" stroke="black" points="365,-253.5 365,-276.5 483,-276.5 483,-253.5 365,-253.5"/>
<text text-anchor="start" x="371" y="-262.5" font-family="Helvetica,sans-Serif" font-size="10.00">LAN 10.1.1.1</text>
<polygon fill="none" stroke="black" points="365,-230.5 365,-253.5 483,-253.5 483,-230.5 365,-230.5"/>
<text text-anchor="start" x="371" y="-239.5" font-family="Helvetica,sans-Serif" font-size="10.00">gateway</text>
<polygon fill="none" stroke="black" stroke-width="2" points="364,-229.5 364,-323.5 484,-323.5 484,-229.5 364,-229.5"/>
</g>
<!-- host_reid_shorepi -->
<g id="node7" class="node">
<title>host_reid_shorepi</title>
<polygon fill="white" stroke="transparent" stroke-width="1.5" points="735.5,-323.5 530.5,-323.5 530.5,-229.5 735.5,-229.5 735.5,-323.5"/>
<polygon fill="none" stroke="black" points="532,-299.5 532,-322.5 735,-322.5 735,-299.5 532,-299.5"/>
<text text-anchor="start" x="612" y="-309.5" font-family="Helvetica,sans-Serif" font-weight="bold" font-size="10.00">shorepi</text>
<polygon fill="none" stroke="black" points="532,-276.5 532,-299.5 735,-299.5 735,-276.5 532,-276.5"/>
<text text-anchor="start" x="576.5" y="-285.5" font-family="Helvetica,sans-Serif" font-size="10.00">shorepi.reid.home.arpa</text>
<polygon fill="none" stroke="black" points="532,-253.5 532,-276.5 735,-276.5 735,-253.5 532,-253.5"/>
<text text-anchor="start" x="538" y="-262.5" font-family="Helvetica,sans-Serif" font-size="10.00">LAN 10.1.1.20</text>
<polygon fill="none" stroke="black" points="532,-230.5 532,-253.5 735,-253.5 735,-230.5 532,-230.5"/>
<text text-anchor="start" x="538" y="-239.5" font-family="Helvetica,sans-Serif" font-size="10.00">signalk • influxdb • grafana • app&#45;host</text>
<polygon fill="none" stroke="black" points="530.5,-229.5 530.5,-323.5 735.5,-323.5 735.5,-229.5 530.5,-229.5"/>
</g>
<!-- site_reid -->
<g id="node8" class="node">
<title>site_reid</title>
<ellipse fill="none" stroke="black" stroke-dasharray="5,2" cx="633" cy="-544" rx="51.74" ry="20.51"/>
<text text-anchor="middle" x="633" y="-541.5" font-family="Helvetica,sans-Serif" font-size="10.00">10.1.1.0/24</text>
</g>
<!-- site_reid&#45;&gt;host_reid_mudpi -->
<g id="edge2" class="edge">
<title>site_reid&#45;&gt;host_reid_mudpi</title>
<path fill="none" stroke="black" d="M593.39,-530.82C512.73,-506.03 337,-452 337,-452 337,-452 273.47,-386.79 224.08,-336.09"/>
</g>
<!-- site_reid&#45;&gt;host_reid_abbhub -->
<g id="edge1" class="edge">
<title>site_reid&#45;&gt;host_reid_abbhub</title>
<path fill="none" stroke="black" d="M656.33,-525.45C691.49,-499.01 754,-452 754,-452 754,-452 792.58,-375.5 818.65,-323.8"/>
</g>
<!-- site_reid&#45;&gt;host_reid_printserver -->
<g id="edge3" class="edge">
<title>site_reid&#45;&gt;host_reid_printserver</title>
<path fill="none" stroke="black" d="M672.75,-530.82C753.68,-506.03 930,-452 930,-452 930,-452 969.45,-375.5 996.12,-323.8"/>
</g>
<!-- site_reid&#45;&gt;host_reid_router -->
<g id="edge4" class="edge">
<title>site_reid&#45;&gt;host_reid_router</title>
<path fill="none" stroke="black" d="M609.86,-525.45C574.99,-499.01 513,-452 513,-452 513,-452 478.67,-384.69 452.65,-333.67"/>
</g>
<!-- site_reid&#45;&gt;host_reid_shorepi -->
<g id="edge5" class="edge">
<title>site_reid&#45;&gt;host_reid_shorepi</title>
<path fill="none" stroke="black" d="M633,-523.48C633,-481.68 633,-382.58 633,-323.71"/>
</g>
<!-- host_barkingowl_weatherstation -->
<g id="node10" class="node">
<title>host_barkingowl_weatherstation</title>
<polygon fill="white" stroke="transparent" stroke-width="1.2" points="1557.5,-122.5 1356.5,-122.5 1356.5,-28.5 1557.5,-28.5 1557.5,-122.5"/>
<polygon fill="none" stroke="black" points="1358,-98.5 1358,-121.5 1557,-121.5 1557,-98.5 1358,-98.5"/>
<text text-anchor="start" x="1415" y="-108.5" font-family="Helvetica,sans-Serif" font-weight="bold" font-size="10.00">weatherstation</text>
<polygon fill="none" stroke="black" points="1358,-75.5 1358,-98.5 1557,-98.5 1557,-75.5 1358,-75.5"/>
<text text-anchor="start" x="1364" y="-84.5" font-family="Helvetica,sans-Serif" font-size="10.00">weatherstation.barkingowl.home.arpa</text>
<polygon fill="none" stroke="black" points="1358,-52.5 1358,-75.5 1557,-75.5 1557,-52.5 1358,-52.5"/>
<text text-anchor="start" x="1364" y="-61.5" font-family="Helvetica,sans-Serif" font-size="10.00">LAN 192.168.0.50</text>
<polygon fill="none" stroke="black" points="1358,-29.5 1358,-52.5 1557,-52.5 1557,-29.5 1358,-29.5"/>
<text text-anchor="start" x="1364" y="-38.5" font-family="Helvetica,sans-Serif" font-size="10.00">weather</text>
<polygon fill="none" stroke="black" points="1356.5,-28.5 1356.5,-122.5 1557.5,-122.5 1557.5,-28.5 1356.5,-28.5"/>
</g>
<!-- site_barkingowl -->
<g id="node11" class="node">
<title>site_barkingowl</title>
<ellipse fill="none" stroke="black" stroke-dasharray="5,2" cx="1338" cy="-276.5" rx="64.19" ry="20.51"/>
<text text-anchor="middle" x="1338" y="-274" font-family="Helvetica,sans-Serif" font-size="10.00">192.168.0.0/24</text>
</g>
<!-- site_barkingowl&#45;&gt;host_barkingowl_shedpi -->
<g id="edge6" class="edge">
<title>site_barkingowl&#45;&gt;host_barkingowl_shedpi</title>
<path fill="none" stroke="black" d="M1326.28,-256.06C1309.53,-228.28 1278.04,-176.07 1253.33,-135.08"/>
</g>
<!-- site_barkingowl&#45;&gt;host_barkingowl_weatherstation -->
<g id="edge7" class="edge">
<title>site_barkingowl&#45;&gt;host_barkingowl_weatherstation</title>
<path fill="none" stroke="black" d="M1349.63,-256.06C1367.99,-225.35 1404.21,-164.77 1429.49,-122.51"/>
</g>
<!-- host_trilogy_signalk -->
<g id="node13" class="node">
<title>host_trilogy_signalk</title>
<polygon fill="white" stroke="transparent" stroke-width="1.5" points="2252,-122.5 2114,-122.5 2114,-28.5 2252,-28.5 2252,-122.5"/>
<polygon fill="none" stroke="black" points="2115,-98.5 2115,-121.5 2251,-121.5 2251,-98.5 2115,-98.5"/>
<text text-anchor="start" x="2162" y="-108.5" font-family="Helvetica,sans-Serif" font-weight="bold" font-size="10.00">signalk</text>
<polygon fill="none" stroke="black" points="2115,-75.5 2115,-98.5 2251,-98.5 2251,-75.5 2115,-75.5"/>
<text text-anchor="start" x="2121" y="-84.5" font-family="Helvetica,sans-Serif" font-size="10.00">signalk.trilogy.home.arpa</text>
<polygon fill="none" stroke="black" points="2115,-52.5 2115,-75.5 2251,-75.5 2251,-52.5 2115,-52.5"/>
<text text-anchor="start" x="2121" y="-61.5" font-family="Helvetica,sans-Serif" font-size="10.00">LAN 192.168.98.20</text>
<polygon fill="none" stroke="black" points="2115,-29.5 2115,-52.5 2251,-52.5 2251,-29.5 2115,-29.5"/>
<text text-anchor="start" x="2121" y="-38.5" font-family="Helvetica,sans-Serif" font-size="10.00">signalk</text>
<polygon fill="none" stroke="black" points="2114,-28.5 2114,-122.5 2252,-122.5 2252,-28.5 2114,-28.5"/>
</g>
<!-- site_trilogy -->
<g id="node14" class="node">
<title>site_trilogy</title>
<ellipse fill="none" stroke="black" stroke-dasharray="5,2" cx="2078" cy="-276.5" rx="68.68" ry="20.51"/>
<text text-anchor="middle" x="2078" y="-274" font-family="Helvetica,sans-Serif" font-size="10.00">192.168.98.0/24</text>
</g>
<!-- site_trilogy&#45;&gt;host_trilogy_boatdns -->
<g id="edge8" class="edge">
<title>site_trilogy&#45;&gt;host_trilogy_boatdns</title>
<path fill="none" stroke="black" d="M2067.64,-256.06C2052.85,-228.28 2025.04,-176.07 2003.21,-135.08"/>
</g>
<!-- site_trilogy&#45;&gt;host_trilogy_signalk -->
<g id="edge9" class="edge">
<title>site_trilogy&#45;&gt;host_trilogy_signalk</title>
<path fill="none" stroke="black" d="M2088.26,-256.06C2104.46,-225.35 2136.42,-164.77 2158.72,-122.51"/>
</g>
<!-- site_testboat -->
<g id="node16" class="node">
<title>site_testboat</title>
<ellipse fill="none" stroke="black" stroke-dasharray="5,2" cx="2390" cy="-276.5" rx="68.68" ry="20.51"/>
<text text-anchor="middle" x="2390" y="-274" font-family="Helvetica,sans-Serif" font-size="10.00">192.168.97.0/24</text>
</g>
<!-- site_testboat&#45;&gt;host_testboat_labdns -->
<g id="edge10" class="edge">
<title>site_testboat&#45;&gt;host_testboat_labdns</title>
<path fill="none" stroke="black" d="M2390,-255.69C2390,-227.87 2390,-176.06 2390,-135.28"/>
</g>
</g>
</svg>
