<?xml version="1.0" encoding="UTF-8" standalone="no"?>
<!DOCTYPE svg PUBLIC "-//W3C//DTD SVG 1.1//EN"
 "http://www.w3.org/Graphics/SVG/1.1/DTD/svg11.dtd">
<!-- Generated by graphviz version 2.43.0 (0)
 -->
<!-- Title: mudpi_network Pages: 1 -->
<svg width="2542pt" height="690pt"
 viewBox="0.00 0.00 2542.00 690.00" xmlns="http://www.w3.org/2000/svg" xmlns:xlink="http://www.w3.org/1999/xlink">
<g id="graph0" class="graph" transform="scale(1 1) rotate(0) translate(18 672)">
<title>mudpi_network</title>
<polygon fill="white" stroke="transparent" points="-18,18 -18,-672 2524,-672 2524,18 -18,18"/>
<text text-anchor="middle" x="1253" y="-634" font-family="Helvetica,sans-Serif" font-size="20.00">MudPi Distributed Network</text>
<g id="clust1" class="cluster">
<title>cluster_vpn</title>
<path fill="none" stroke="black" stroke-width="1.5" stroke-dasharray="5,2" d="M20,-20.5C20,-20.5 314,-20.5 314,-20.5 320,-20.5 326,-26.5 326,-32.5 326,-32.5 326,-400 326,-400 326,-406 320,-412 314,-412 314,-412 20,-412 20,-412 14,-412 8,-406 8,-400 8,-400 8,-32.5 8,-32.5 8,-26.5 14,-20.5 20,-20.5"/>
<text text-anchor="start" x="154.5" y="-399.4" font-family="Helvetica,sans-Serif" font-weight="bold" font-size="12.00">vpn</text>
<text text-anchor="start" x="121" y="-387.4" font-family="Helvetica,sans-Serif" font-size="12.00">vpn.home.arpa</text>
<text text-anchor="start" x="108" y="-375.4" font-family="Helvetica,sans-Serif" font-size="12.00">Overlay 10.8.1.0/24</text>
<text text-anchor="start" x="128.5" y="-363.4" font-family="Helvetica,sans-Serif" font-size="12.00">Hub 10.8.1.1</text>
<text text-anchor="start" x="133.5" y="-351.4" font-family="Helvetica,sans-Serif" font-size="12.00">DNS mudpi</text>
</g>
<g id="clust2" class="cluster">
<title>cluster_reid</title>
<path fill="none" stroke="black" stroke-width="1.5" d="M358,-211.5C358,-211.5 1088,-211.5 1088,-211.5 1094,-211.5 1100,-217.5 1100,-223.5 1100,-223.5 1100,-604 1100,-604 1100,-610 1094,-616 1088,-616 1088,-616 358,-616 358,-616 352,-616 346,-610 346,-604 346,-604 346,-223.5 346,-223.5 346,-217.5 352,-211.5 358,-211.5"/>
<text text-anchor="start" x="709.5" y="-603.4" font-family="Helvetica,sans-Serif" font-weight="bold" font-size="12.00">reid</text>
<text text-anchor="start" x="676.5" y="-591.4" font-family="Helvetica,sans-Serif" font-size="12.00">reid.home.arpa</text>
<text text-anchor="start" x="675" y="-579.4" font-family="Helvetica,sans-Serif" font-size="12.00">LAN 10.1.1.0/24</text>
<text text-anchor="start" x="686" y="-567.4" font-family="Helvetica,sans-Serif" font-size="12.00">GW 10.1.1.1</text>
<text text-anchor="start" x="689.5" y="-555.4" font-family="Helvetica,sans-Serif" font-size="12.00">DNS mudpi</text>
<text text-anchor="start" x="685" y="-543.4" font-family="Helvetica,sans-Serif" font-size="12.00">DHCP mudpi</text>
</g>
<g id="clust3" class="cluster">
<title>cluster_barkingowl</title>
<path fill="none" stroke="black" stroke-width="1.5" d="M1120,-8C1120,-8 1552,-8 1552,-8 1558,-8 1564,-14 1564,-20 1564,-20 1564,-373.01 1564,-373.01 1564,-379.01 1558,-385.01 1552,-385.01 1552,-385.01 1120,-385.01 1120,-385.01 1114,-385.01 1108,-379.01 1108,-373.01 1108,-373.01 1108,-20 1108,-20 1108,-14 1114,-8 1120,-8"/>
<text text-anchor="start" x="1298.5" y="-372.41" font-family="Helvetica,sans-Serif" font-weight="bold" font-size="12.00">barkingowl</text>
<text text-anchor="start" x="1268" y="-360.41" font-family="Helvetica,sans-Serif" font-size="12.00">barkingowl.home.arpa</text>
<text text-anchor="start" x="1277" y="-348.41" font-family="Helvetica,sans-Serif" font-size="12.00">LAN 192.168.0.0/24</text>
<text text-anchor="start" x="1287.5" y="-336.41" font-family="Helvetica,sans-Serif" font-size="12.00">GW 192.168.0.1</text>
<text text-anchor="start" x="1301.5" y="-324.41" font-family="Helvetica,sans-Serif" font-size="12.00">DNS shedpi</text>
<text text-anchor="start" x="1297.5" y="-312.41" font-family="Helvetica,sans-Serif" font-size="12.00">DHCP shedpi</text>
</g>
<g id="clust4" class="cluster">
<title>cluster_trilogy</title>
<path fill="none" stroke="black" stroke-width="1.5" d="M1868,-8C1868,-8 2246,-8 2246,-8 2252,-8 2258,-14 2258,-20 2258,-20 2258,-373.01 2258,-373.01 2258,-379.01 2252,-385.01 2246,-385.01 2246,-385.01 1868,-385.01 1868,-385.01 1862,-385.01 1856,-379.01 1856,-373.01 1856,-373.01 1856,-20 1856,-20 1856,-14 1862,-8 1868,-8"/>
<text text-anchor="start" x="2035" y="-372.41" font-family="Helvetica,sans-Serif" font-weight="bold" font-size="12.00">trilogy</text>
<text text-anchor="start" x="2004" y="-360.41" font-family="Helvetica,sans-Serif" font-size="12.00">trilogy.home.arpa</text>
<text text-anchor="start" x="1994" y="-348.41" font-family="Helvetica,sans-Serif" font-size="12.00">LAN 192.168.98.0/24</text>
<text text-anchor="start" x="2005" y="-336.41" font-family="Helvetica,sans-Serif" font-size="12.00">GW 192.168.98.1</text>
<text text-anchor="start" x="2018" y="-324.41" font-family="Helvetica,sans-Serif" font-size="12.00">DNS boatdns</text>
<text text-anchor="start" x="2014" y="-312.41" font-family="Helvetica,sans-Serif" font-size="12.00">DHCP boatdns</text>
</g>
<g id="clust5" class="cluster">
<title>cluster_testboat</title>
<path fill="none" stroke="black" stroke-width="1.5" d="M2290,-8C2290,-8 2486,-8 2486,-8 2492,-8 2498,-14 2498,-20 2498,-20 2498,-373.01 2498,-373.01 2498,-379.01 2492,-385.01 2486,-385.01 2486,-385.01 2290,-385.01 2290,-385.01 2284,-385.01 2278,-379.01 2278,-373.01 2278,-373.01 2278,-20 2278,-20 2278,-14 2284,-8 2290,-8"/>
<text text-anchor="start" x="2358.5" y="-372.41" font-family="Helvetica,sans-Serif" font-weight="bold" font-size="12.00">testboat</text>
<text text-anchor="start" x="2328" y="-360.41" font-family="Helvetica,sans-Serif" font-size="12.00">testboat.home.arpa</text>
<text text-anchor="start" x="2325" y="-348.41" font-family="Helvetica,sans-Serif" font-size="12.00">LAN 192.168.97.0/24</text>
<text text-anchor="start" x="2336" y="-336.41" font-family="Helvetica,sans-Serif" font-size="12.00">GW 192.168.97.1</text>
<text text-anchor="start" x="2353.5" y="-324.41" font-family="Helvetica,sans-Serif" font-size="12.00">DNS labdns</text>
<text text-anchor="start" x="2349.5" y="-312.41" font-family="Helvetica,sans-Serif" font-size="12.00">DHCP labdns</text>
</g>
<!-- host_vpn_laptop -->
<g id="node1" class="node">
<title>host_vpn_laptop</title>
<polygon fill="white" stroke="transparent" points="267.5,-122.5 66.5,-122.5 66.5,-28.5 267.5,-28.5 267.5,-122.5"/>
<polygon fill="none" stroke="black" points="68,-98.5 68,-121.5 267,-121.5 267,-98.5 68,-98.5"/>
<text text-anchor="start" x="149" y="-108.5" font-family="Helvetica,sans-Serif" font-weight="bold" font-size="10.00">laptop</text>
<polygon fill="none" stroke="black" points="68,-75.5 68,-98.5 267,-98.5 267,-75.5 68,-75.5"/>
<text text-anchor="start" x="113.5" y="-84.5" font-family="Helvetica,sans-Serif" font-size="10.00">laptop.vpn.home.arpa</text>
<polygon fill="none" stroke="black" points="68,-52.5 68,-75.5 267,-75.5 267,-52.5 68,-52.5"/>
<text text-anchor="start" x="74" y="-61.5" font-family="Helvetica,sans-Serif" font-size="10.00">VPN 10.8.1.20 (laptop.vpn.home.arpa)</text>
<polygon fill="none" stroke="black" points="68,-29.5 68,-52.5 267,-52.5 267,-29.5 68,-29.5"/>
<text text-anchor="start" x="74" y="-38.5" font-family="Helvetica,sans-Serif" font-size="10.00">roaming&#45;client</text>
<polygon fill="none" stroke="black" points="66.5,-28.5 66.5,-122.5 267.5,-122.5 267.5,-28.5 66.5,-28.5"/>
</g>
<!-- host_reid_mudpi -->
<g id="node2" class="node">
<title>host_reid_mudpi</title>
<polygon fill="white" stroke="transparent" stroke-width="2" points="318,-336 16,-336 16,-217 318,-217 318,-336"/>
<polygon fill="none" stroke="black" points="18,-310.5 18,-333.5 316,-333.5 316,-310.5 18,-310.5"/>
<text text-anchor="start" x="148.5" y="-320.5" font-family="Helvetica,sans-Serif" font-weight="bold" font-size="10.00">mudpi</text>
<polygon fill="none" stroke="black" points="18,-287.5 18,-310.5 316,-310.5 316,-287.5 18,-287.5"/>
<text text-anchor="start" x="112.5" y="-296.5" font-family="Helvetica,sans-Serif" font-size="10.00">mudpi.reid.home.arpa</text>
<polygon fill="none" stroke="black" points="18,-264.5 18,-287.5 316,-287.5 316,-264.5 18,-264.5"/>
<text text-anchor="start" x="24" y="-273.5" font-family="Helvetica,sans-Serif" font-size="10.00">LAN 10.1.1.10</text>
<polygon fill="none" stroke="black" points="18,-241.5 18,-264.5 316,-264.5 316,-241.5 18,-241.5"/>
<text text-anchor="start" x="24" y="-250.5" font-family="Helvetica,sans-Serif" font-size="10.00">VPN 10.8.1.1 (mudpi.vpn.home.arpa)</text>
<polygon fill="none" stroke="black" points="18,-218.5 18,-241.5 316,-241.5 316,-218.5 18,-218.5"/>
<text text-anchor="start" x="24" y="-227.5" font-family="Helvetica,sans-Serif" font-size="10.00">wireguard&#45;hub • dns • dhcp • ntp&#45;stratum1 • dynamic&#45;dns</text>
<polygon fill="none" stroke="black" stroke-width="2" points="17,-218 17,-335 317,-335 317,-218 17,-218"/>
</g>
<!-- host_reid_mudpi&#45;&gt;host_vpn_laptop -->
<g id="edge14" class="edge">
<title>host_reid_mudpi&#45;&gt;host_vpn_laptop</title>
<path fill="none" stroke="black" stroke-width="1.4" stroke-dasharray="5,2" d="M167,-206.82C167,-182.73 167,-155.97 167,-133"/>
<polygon fill="black" stroke="black" stroke-width="1.4" points="163.5,-206.87 167,-216.87 170.5,-206.87 163.5,-206.87"/>
<polygon fill="black" stroke="black" stroke-width="1.4" points="170.5,-132.73 167,-122.73 163.5,-132.73 170.5,-132.73"/>
<text text-anchor="middle" x="191.5" y="-173.8" font-family="Helvetica,sans-Serif" font-size="9.00">WireGuard</text>
</g>
<!-- host_barkingowl_shedpi -->
<g id="node9" class="node">
<title>host_barkingowl_shedpi</title>
<polygon fill="white" stroke="transparent" stroke-width="2" points="1320,-135 1116,-135 1116,-16 1320,-16 1320,-135"/>
<polygon fill="none" stroke="black" points="1118,-109.5 1118,-132.5 1318,-132.5 1318,-109.5 1118,-109.5"/>
<text text-anchor="start" x="1198.5" y="-119.5" font-family="Helvetica,sans-Serif" font-weight="bold" font-size="10.00">shedpi</text>
<polygon fill="none" stroke="black" points="1118,-86.5 1118,-109.5 1318,-109.5 1318,-86.5 1118,-86.5"/>
<text text-anchor="start" x="1145.5" y="-95.5" font-family="Helvetica,sans-Serif" font-size="10.00">shedpi.barkingowl.home.arpa</text>
<polygon fill="none" stroke="black" points="1118,-63.5 1118,-86.5 1318,-86.5 1318,-63.5 1118,-63.5"/>
<text text-anchor="start" x="1124" y="-72.5" font-family="Helvetica,sans-Serif" font-size="10.00">LAN 192.168.0.10</text>
<polygon fill="none" stroke="black" points="1118,-40.5 1118,-63.5 1318,-63.5 1318,-40.5 1118,-40.5"/>
<text text-anchor="start" x="1124" y="-49.5" font-family="Helvetica,sans-Serif" font-size="10.00">VPN 10.8.1.30 (shedpi.vpn.home.arpa)</text>
<polygon fill="none" stroke="black" points="1118,-17.5 1118,-40.5 1318,-40.5 1318,-17.5 1118,-17.5"/>
<text text-anchor="start" x="1124" y="-26.5" font-family="Helvetica,sans-Serif" font-size="10.00">dns • dhcp • farm&#45;server</text>
<polygon fill="none" stroke="black" stroke-width="2" points="1117,-17 1117,-134 1319,-134 1319,-17 1117,-17"/>
</g>
<!-- host_reid_mudpi&#45;&gt;host_barkingowl_shedpi -->
<g id="edge11" class="edge">
<title>host_reid_mudpi&#45;&gt;host_barkingowl_shedpi</title>
<path fill="none" stroke="black" stroke-width="1.4" stroke-dasharray="5,2" d="M327.65,-215.02C333.56,-212.8 337,-211.5 337,-211.5 337,-211.5 493,-171 493,-171 493,-171 901.89,-117.7 1105.53,-91.16"/>
<polygon fill="black" stroke="black" stroke-width="1.4" points="326.28,-211.79 318.16,-218.59 328.75,-218.35 326.28,-211.79"/>
<polygon fill="black" stroke="black" stroke-width="1.4" points="1106.2,-94.6 1115.66,-89.84 1105.29,-87.66 1106.2,-94.6"/>
<text text-anchor="middle" x="517.5" y="-173.8" font-family="Helvetica,sans-Serif" font-size="9.00">WireGuard</text>
</g>
<!-- host_reid_mudpi&#45;&gt;host_barkingowl_shedpi -->
<g id="edge15" class="edge">
<title>host_reid_mudpi&#45;&gt;host_barkingowl_shedpi</title>
<path fill="none" stroke="black" stroke-dasharray="1,5" d="M318.16,-218.59C329.71,-214.24 337,-211.5 337,-211.5 337,-211.5 547,-181 547,-181 547,-181 914.61,-123.75 1105.64,-94"/>
<polygon fill="black" stroke="black" points="1106.38,-97.43 1115.72,-92.43 1105.31,-90.51 1106.38,-97.43"/>
<text text-anchor="middle" x="685" y="-173.8" font-family="Helvetica,sans-Serif" font-size="9.00">DNS forward barkingowl.home.arpa</text>
</g>
<!-- host_trilogy_boatdns -->
<g id="node12" class="node">
<title>host_trilogy_boatdns</title>
<polygon fill="white" stroke="transparent" stroke-width="2" points="2075.5,-135 1864.5,-135 1864.5,-16 2075.5,-16 2075.5,-135"/>
<polygon fill="none" stroke="black" points="1867,-109.5 1867,-132.5 2074,-132.5 2074,-109.5 1867,-109.5"/>
<text text-anchor="start" x="1947.5" y="-119.5" font-family="Helvetica,sans-Serif" font-weight="bold" font-size="10.00">boatdns</text>
<polygon fill="none" stroke="black" points="1867,-86.5 1867,-109.5 2074,-109.5 2074,-86.5 1867,-86.5"/>
<text text-anchor="start" x="1906.5" y="-95.5" font-family="Helvetica,sans-Serif" font-size="10.00">boatdns.trilogy.home.arpa</text>
<polygon fill="none" stroke="black" points="1867,-63.5 1867,-86.5 2074,-86.5 2074,-63.5 1867,-63.5"/>
<text text-anchor="start" x="1873" y="-72.5" font-family="Helvetica,sans-Serif" font-size="10.00">LAN 192.168.98.10</text>
<polygon fill="none" stroke="black" points="1867,-40.5 1867,-63.5 2074,-63.5 2074,-40.5 1867,-40.5"/>
<text text-anchor="start" x="1873" y="-49.5" font-family="Helvetica,sans-Serif" font-size="10.00">VPN 10.8.1.40 (boatdns.vpn.home.arpa)</text>
<polygon fill="none" stroke="black" points="1867,-17.5 1867,-40.5 2074,-40.5 2074,-17.5 1867,-17.5"/>
<text text-anchor="start" x="1873" y="-26.5" font-family="Helvetica,sans-Serif" font-size="10.00">dns • dhcp</text>
<polygon fill="none" stroke="black" stroke-width="2" points="1865.5,-17 1865.5,-134 2074.5,-134 2074.5,-17 1865.5,-17"/>
</g>
<!-- host_reid_mudpi&#45;&gt;host_trilogy_boatdns -->
<g id="edge12" class="edge">
<title>host_reid_mudpi&#45;&gt;host_trilogy_boatdns</title>
<path fill="none" stroke="black" stroke-width="1.4" stroke-dasharray="5,2" d="M327.65,-215.02C333.56,-212.8 337,-211.5 337,-211.5 337,-211.5 775,-181 775,-181 775,-181 846,-171 846,-171 846,-171 1573,-135 1573,-135 1573,-135 1737.08,-110.82 1854.27,-93.55"/>
<polygon fill="black" stroke="black" stroke-width="1.4" points="326.28,-211.79 318.16,-218.59 328.75,-218.35 326.28,-211.79"/>
<polygon fill="black" stroke="black" stroke-width="1.4" points="1855.01,-96.98 1864.39,-92.06 1853.99,-90.06 1855.01,-96.98"/>
<text text-anchor="middle" x="870.5" y="-173.8" font-family="Helvetica,sans-Serif" font-size="9.00">WireGuard</text>
</g>
<!-- host_reid_mudpi&#45;&gt;host_trilogy_boatdns -->
<g id="edge17" class="edge">
<title>host_reid_mudpi&#45;&gt;host_trilogy_boatdns</title>
<path fill="none" stroke="black" stroke-dasharray="1,5" d="M318.16,-218.59C329.71,-214.24 337,-211.5 337,-211.5 337,-211.5 900,-181 900,-181 900,-181 1573,-135 1573,-135 1573,-135 1737.08,-110.82 1854.27,-93.55"/>
<polygon fill="black" stroke="black" points="1855.01,-96.98 1864.39,-92.06 1853.99,-90.06 1855.01,-96.98"/>
<text text-anchor="middle" x="1114.5" y="-173.8" font-family="Helvetica,sans-Serif" font-size="9.00">DNS forward trilogy.home.arpa</text>
</g>
<!-- host_testboat_labdns -->
<g id="node15" class="node">
<title>host_testboat_labdns</title>
<polygon fill="white" stroke="transparent" stroke-width="2" points="2490,-135 2286,-135 2286,-16 2490,-16 2490,-135"/>
<polygon fill="none" stroke="black" points="2288,-109.5 2288,-132.5 2488,-132.5 2488,-109.5 2288,-109.5"/>
<text text-anchor="start" x="2368.5" y="-119.5" font-family="Helvetica,sans-Serif" font-weight="bold" font-size="10.00">labdns</text>
<polygon fill="none" stroke="black" points="2288,-86.5 2288,-109.5 2488,-109.5 2488,-86.5 2288,-86.5"/>
<text text-anchor="start" x="2322" y="-95.5" font-family="Helvetica,sans-Serif" font-size="10.00">labdns.testboat.home.arpa</text>
<polygon fill="none" stroke="black" points="2288,-63.5 2288,-86.5 2488,-86.5 2488,-63.5 2288,-63.5"/>
<text text-anchor="start" x="2294" y="-72.5" font-family="Helvetica,sans-Serif" font-size="10.00">LAN 192.168.97.10</text>
<polygon fill="none" stroke="black" points="2288,-40.5 2288,-63.5 2488,-63.5 2488,-40.5 2288,-40.5"/>
<text text-anchor="start" x="2294" y="-49.5" font-family="Helvetica,sans-Serif" font-size="10.00">VPN 10.8.1.50 (labdns.vpn.home.arpa)</text>
<polygon fill="none" stroke="black" points="2288,-17.5 2288,-40.5 2488,-40.5 2488,-17.5 2288,-17.5"/>
<text text-anchor="start" x="2294" y="-26.5" font-family="Helvetica,sans-Serif" font-size="10.00">dns • dhcp</text>
<polygon fill="none" stroke="black" stroke-width="2" points="2287,-17 2287,-134 2489,-134 2489,-17 2287,-17"/>
</g>
<!-- host_reid_mudpi&#45;&gt;host_testboat_labdns -->
<g id="edge13" class="edge">
<title>host_reid_mudpi&#45;&gt;host_testboat_labdns</title>
<path fill="none" stroke="black" stroke-width="1.4" stroke-dasharray="5,2" d="M327.65,-215.02C333.56,-212.8 337,-211.5 337,-211.5 337,-211.5 1759,-181 1759,-181 1759,-181 2267,-135 2267,-135 2267,-135 2270.74,-133.19 2276.9,-130.21"/>
<polygon fill="black" stroke="black" stroke-width="1.4" points="326.28,-211.79 318.16,-218.59 328.75,-218.35 326.28,-211.79"/>
<polygon fill="black" stroke="black" stroke-width="1.4" points="2278.43,-133.36 2285.91,-125.86 2275.38,-127.06 2278.43,-133.36"/>
<text text-anchor="middle" x="1892.5" y="-173.8" font-family="Helvetica,sans-Serif" font-size="9.00">WireGuard</text>
</g>
<!-- host_reid_mudpi&#45;&gt;host_testboat_labdns -->
<g id="edge16" class="edge">
<title>host_reid_mudpi&#45;&gt;host_testboat_labdns</title>
<path fill="none" stroke="black" stroke-dasharray="1,5" d="M318.16,-218.59C329.71,-214.24 337,-211.5 337,-211.5 337,-211.5 1193,-181 1193,-181 1193,-181 2267,-135 2267,-135 2267,-135 2270.74,-133.19 2276.9,-130.21"/>
<polygon fill="black" stroke="black" points="2278.43,-133.36 2285.91,-125.86 2275.38,-127.06 2278.43,-133.36"/>
<text text-anchor="middle" x="1499" y="-173.8" font-family="Helvetica,sans-Serif" font-size="9.00">DNS forward testboat.home.arpa</text>
</g>
<!-- host_reid_abbhub -->
<g id="node3" class="node">
<title>host_reid_abbhub</title>
<polygon fill="white" stroke="transparent" points="912,-323.5 772,-323.5 772,-229.5 912,-229.5 912,-323.5"/>
<polygon fill="none" stroke="black" points="773,-299.5 773,-322.5 911,-322.5 911,-299.5 773,-299.5"/>
<text text-anchor="start" x="820.5" y="-309.5" font-family="Helvetica,sans-Serif" font-weight="bold" font-size="10.00">abbhub</text>
<polygon fill="none" stroke="black" points="773,-276.5 773,-299.5 911,-299.5 911,-276.5 773,-276.5"/>
<text text-anchor="start" x="785" y="-285.5" font-family="Helvetica,sans-Serif" font-size="10.00">abbhub.reid.home.arpa</text>
<polygon fill="none" stroke="black" points="773,-253.5 773,-276.5 911,-276.5 911,-253.5 773,-253.5"/>
<text text-anchor="start" x="779" y="-262.5" font-family="Helvetica,sans-Serif" font-size="10.00">LAN 10.1.1.6</text>
<polygon fill="none" stroke="black" points="773,-230.5 773,-253.5 911,-253.5 911,-230.5 773,-230.5"/>
<text text-anchor="start" x="779" y="-239.5" font-family="Helvetica,sans-Serif" font-size="10.00">solar&#45;monitor • appliance</text>
<polygon fill="none" stroke="black" points="772,-229.5 772,-323.5 912,-323.5 912,-229.5 772,-229.5"/>
</g>
<!-- host_reid_printer -->
<g id="node4" class="node">
<title>host_reid_printer</title>
<polygon fill="white" stroke="transparent" points="967.5,-528 844.5,-528 844.5,-457 967.5,-457 967.5,-528"/>
<polygon fill="none" stroke="black" points="846,-503.5 846,-526.5 967,-526.5 967,-503.5 846,-503.5"/>
<text text-anchor="start" x="886.5" y="-513.5" font-family="Helvetica,sans-Serif" font-weight="bold" font-size="10.00">printer</text>
<polygon fill="none" stroke="black" points="846,-480.5 846,-503.5 967,-503.5 967,-480.5 846,-480.5"/>
<text text-anchor="start" x="852" y="-489.5" font-family="Helvetica,sans-Serif" font-size="10.00">printer.reid.home.arpa</text>
<polygon fill="none" stroke="black" points="846,-457.5 846,-480.5 967,-480.5 967,-457.5 846,-457.5"/>
<text text-anchor="start" x="852" y="-466.5" font-family="Helvetica,sans-Serif" font-size="10.00">printer • appliance</text>
<polygon fill="none" stroke="black" points="844.5,-457 844.5,-528 967.5,-528 967.5,-457 844.5,-457"/>
</g>
<!-- host_reid_printserver -->
<g id="node5" class="node">
<title>host_reid_printserver</title>
<polygon fill="white" stroke="transparent" points="1092,-323.5 948,-323.5 948,-229.5 1092,-229.5 1092,-323.5"/>
<polygon fill="none" stroke="black" points="949,-299.5 949,-322.5 1091,-322.5 1091,-299.5 949,-299.5"/>
<text text-anchor="start" x="987.5" y="-309.5" font-family="Helvetica,sans-Serif" font-weight="bold" font-size="10.00">printserver</text>
<polygon fill="none" stroke="black" points="949,-276.5 949,-299.5 1091,-299.5 1091,-276.5 949,-276.5"/>
<text text-anchor="start" x="955" y="-285.5" font-family="Helvetica,sans-Serif" font-size="10.00">printserver.reid.home.arpa</text>
<polygon fill="none" stroke="black" points="949,-253.5 949,-276.5 1091,-276.5 1091,-253.5 949,-253.5"/>
<text text-anchor="start" x="955" y="-262.5" font-family="Helvetica,sans-Serif" font-size="10.00">LAN 10.1.1.30</text>
<polygon fill="none" stroke="black" points="949,-230.5 949,-253.5 1091,-253.5 1091,-230.5 949,-230.5"/>
<text text-anchor="start" x="955" y="-239.5" font-family="Helvetica,sans-Serif" font-size="10.00">print&#45;server • utility</text>
<polygon fill="none" stroke="black" points="948,-229.5 948,-323.5 1092,-323.5 1092,-229.5 948,-229.5"/>
</g>
<!-- host_reid_router -->
<g id="node6" class="node">
<title>host_reid_router</title>
<polygon fill="white" stroke="black" stroke-width="1.6" points="494,-333.5 358,-333.5 354,-329.5 354,-219.5 490,-219.5 494,-223.5 494,-333.5"/>
<polyline fill="none" stroke="black" stroke-width="1.6" points="490,-329.5 354,-329.5 "/>
<polyline fill="none" stroke="black" stroke-width="1.6" points="490,-329.5 490,-219.5 "/>
<polyline fill="none" stroke="black" stroke-width="1.6" points="490,-329.5 494,-333.5 "/>
<polygon fill="none" stroke="black" points="365,-299.5 365,-322.5 483,-322.5 483,-299.5 365,-299.5"/>
<text text-anchor="start" x="406" y="-309.5" font-family="Helvetica,sans-Serif" font-weight="bold" font-size="10.00">router</text>
<polygon fill="none" stroke="black" points="365,-276.5 365,-299.5 483,-299.5 483,-276.5 365,-276.5"/>
<text text-anchor="start" x="371" y="-285.5" font-family="Helvetica,sans-Serif" font-size="10.00">router.reid.home.arpa</text>
<polygon fill="none" stroke="black" points="365,-253.5 365,-276.5 483,-276.5 483,-253.5 365,-253.5"/>
<text text-anchor="start" x="371" y="-262.5" font-family="Helvetica,sans-Serif" font-size="10.00">LAN 10.1.1.1</text>
<polygon fill="none" stroke="black" points="365,-230.5 365,-253.5 483,-253.5 483,-230.5 365,-230.5"/>
<text text-anchor="start" x="371" y="-239.5" font-family="Helvetica,sans-Serif" font-size="10.00">gateway</text>
<polygon fill="none" stroke="black" stroke-width="2" points="364,-229.5 364,-323.5 484,-323.5 484,-229.5 364,-229.5"/>
</g>
<!-- host_reid_shorepi -->
<g id="node7" class="node">
<title>host_reid_shorepi</title>
<polygon fill="white" stroke="transparent" stroke-width="1.4" points="735.5,-323.5 530.5,-323.5 530.5,-229.5 735.5,-229.5 735.5,-323.5"/>
<polygon fill="none" stroke="black" points="532,-299.5 532,-322.5 735,-322.5 735,-299.5 532,-299.5"/>
<text text-anchor="start" x="612" y="-309.5" font-family="Helvetica,sans-Serif" font-weight="bold" font-size="10.00">shorepi</text>
<polygon fill="none" stroke="black" points="532,-276.5 532,-299.5 735,-299.5 735,-276.5 532,-276.5"/>
<text text-anchor="start" x="576.5" y="-285.5" font-family="Helvetica,sans-Serif" font-size="10.00">shorepi.reid.home.arpa</text>
<polygon fill="none" stroke="black" points="532,-253.5 532,-276.5 735,-276.5 735,-253.5 532,-253.5"/>
<text text-anchor="start" x="538" y="-262.5" font-family="Helvetica,sans-Serif" font-size="10.00">LAN 10.1.1.20</text>
<polygon fill="none" stroke="black" points="532,-230.5 532,-253.5 735,-253.5 735,-230.5 532,-230.5"/>
<text text-anchor="start" x="538" y="-239.5" font-family="Helvetica,sans-Serif" font-size="10.00">signalk • influxdb • grafana • app&#45;host</text>
<polygon fill="none" stroke="black" points="530.5,-229.5 530.5,-323.5 735.5,-323.5 735.5,-229.5 530.5,-229.5"/>
</g>
<!-- site_reid -->
<g id="node8" class="node">
<title>site_reid</title>
<ellipse fill="none" stroke="black" stroke-dasharray="5,2" cx="633" cy="-492.5" rx="51.74" ry="20.51"/>
<text text-anchor="middle" x="633" y="-490" font-family="Helvetica,sans-Serif" font-size="10.00">10.1.1.0/24</text>
</g>
<!-- site_reid&#45;&gt;host_reid_mudpi -->
<g id="edge2" class="edge">
<title>site_reid&#45;&gt;host_reid_mudpi</title>
<path fill="none" stroke="black" d="M591.22,-480.28C509.63,-458.36 337,-412 337,-412 337,-412 286.88,-372.35 241.07,-336.1"/>
</g>
<!-- site_reid&#45;&gt;host_reid_abbhub -->
<g id="edge1" class="edge">
<title>site_reid&#45;&gt;host_reid_abbhub</title>
<path fill="none" stroke="black" d="M658.66,-474.64C694.18,-451.3 754,-412 754,-412 754,-412 786.26,-362.69 811.72,-323.79"/>
</g>
<!-- site_reid&#45;&gt;host_reid_printserver -->
<g id="edge3" class="edge">
<title>site_reid&#45;&gt;host_reid_printserver</title>
<path fill="none" stroke="black" d="M674.61,-480.36C756.35,-458.48 930,-412 930,-412 930,-412 962.99,-362.69 989.03,-323.79"/>
</g>
<!-- site_reid&#45;&gt;host_reid_router -->
<g id="edge4" class="edge">
<title>site_reid&#45;&gt;host_reid_router</title>
<path fill="none" stroke="black" d="M607.55,-474.64C572.33,-451.3 513,-412 513,-412 513,-412 485.62,-370.62 461.23,-333.76"/>
</g>
<!-- site_reid&#45;&gt;host_reid_shorepi -->
<g id="edge5" class="edge">
<title>site_reid&#45;&gt;host_reid_shorepi</title>
<path fill="none" stroke="black" d="M633,-471.75C633,-438.33 633,-369.77 633,-323.7"/>
</g>
<!-- host_barkingowl_weatherstation -->
<g id="node10" class="node">
<title>host_barkingowl_weatherstation</title>
<polygon fill="white" stroke="transparent" stroke-width="1.2" points="1555.5,-118.5 1356.5,-118.5 1356.5,-32.5 1555.5,-32.5 1555.5,-118.5"/>
<polygon fill="none" stroke="black" points="1358,-96.5 1358,-117.5 1555,-117.5 1555,-96.5 1358,-96.5"/>
<text text-anchor="start" x="1414" y="-105.5" font-family="Helvetica,sans-Serif" font-weight="bold" font-size="10.00">weatherstation</text>
<polygon fill="none" stroke="black" points="1358,-75.5 1358,-96.5 1555,-96.5 1555,-75.5 1358,-75.5"/>
<text text-anchor="start" x="1363" y="-83.5" font-family="Helvetica,sans-Serif" font-size="10.00">weatherstation.barkingowl.home.arpa</text>
<polygon fill="none" stroke="black" points="1358,-54.5 1358,-75.5 1555,-75.5 1555,-54.5 1358,-54.5"/>
<text text-anchor="start" x="1363" y="-62.5" font-family="Helvetica,sans-Serif" font-size="10.00">LAN 192.168.0.50</text>
<polygon fill="none" stroke="black" points="1358,-33.5 1358,-54.5 1555,-54.5 1555,-33.5 1358,-33.5"/>
<text text-anchor="start" x="1363" y="-41.5" font-family="Helvetica,sans-Serif" font-size="10.00">weather</text>
<polygon fill="none" stroke="black" points="1356.5,-32.5 1356.5,-118.5 1555.5,-118.5 1555.5,-32.5 1356.5,-32.5"/>
</g>
<!-- site_barkingowl -->
<g id="node11" class="node">
<title>site_barkingowl</title>
<ellipse fill="none" stroke="black" stroke-dasharray="5,2" cx="1337" cy="-276.5" rx="64.19" ry="20.51"/>
<text text-anchor="middle" x="1337" y="-274" font-family="Helvetica,sans-Serif" font-size="10.00">192.168.0.0/24</text>
</g>
<!-- site_barkingowl&#45;&gt;host_barkingowl_shedpi -->
<g id="edge6" class="edge">
<title>site_barkingowl&#45;&gt;host_barkingowl_shedpi</title>
<path fill="none" stroke="black" d="M1325.37,-256.06C1308.76,-228.28 1277.54,-176.07 1253.03,-135.08"/>
</g>
<!-- site_barkingowl&#45;&gt;host_barkingowl_weatherstation -->
<g id="edge7" class="edge">
<title>site_barkingowl&#45;&gt;host_barkingowl_weatherstation</title>
<path fill="none" stroke="black" d="M1348.63,-256.06C1367.58,-224.37 1405.54,-160.88 1430.87,-118.53"/>
</g>
<!-- host_trilogy_signalk -->
<g id="node13" class="node">
<title>host_trilogy_signalk</title>
<polygon fill="white" stroke="transparent" stroke-width="1.4" points="2250,-122.5 2112,-122.5 2112,-28.5 2250,-28.5 2250,-122.5"/>
<polygon fill="none" stroke="black" points="2113,-98.5 2113,-121.5 2249,-121.5 2249,-98.5 2113,-98.5"/>
<text text-anchor="start" x="2160" y="-108.5" font-family="Helvetica,sans-Serif" font-weight="bold" font-size="10.00">signalk</text>
<polygon fill="none" stroke="black" points="2113,-75.5 2113,-98.5 2249,-98.5 2249,-75.5 2113,-75.5"/>
<text text-anchor="start" x="2119" y="-84.5" font-family="Helvetica,sans-Serif" font-size="10.00">signalk.trilogy.home.arpa</text>
<polygon fill="none" stroke="black" points="2113,-52.5 2113,-75.5 2249,-75.5 2249,-52.5 2113,-52.5"/>
<text text-anchor="start" x="2119" y="-61.5" font-family="Helvetica,sans-Serif" font-size="10.00">LAN 192.168.98.20</text>
<polygon fill="none" stroke="black" points="2113,-29.5 2113,-52.5 2249,-52.5 2249,-29.5 2113,-29.5"/>
<text text-anchor="start" x="2119" y="-38.5" font-family="Helvetica,sans-Serif" font-size="10.00">signalk</text>
<polygon fill="none" stroke="black" points="2112,-28.5 2112,-122.5 2250,-122.5 2250,-28.5 2112,-28.5"/>
</g>
<!-- site_trilogy -->
<g id="node14" class="node">
<title>site_trilogy</title>
<ellipse fill="none" stroke="black" stroke-dasharray="5,2" cx="2076" cy="-276.5" rx="68.68" ry="20.51"/>
<text text-anchor="middle" x="2076" y="-274" font-family="Helvetica,sans-Serif" font-size="10.00">192.168.98.0/24</text>
</g>
<!-- site_trilogy&#45;&gt;host_trilogy_boatdns -->
<g id="edge8" class="edge">
<title>site_trilogy&#45;&gt;host_trilogy_boatdns</title>
<path fill="none" stroke="black" d="M2065.64,-256.06C2050.85,-228.28 2023.04,-176.07 2001.21,-135.08"/>
</g>
<!-- site_trilogy&#45;&gt;host_trilogy_signalk -->
<g id="edge9" class="edge">
<title>site_trilogy&#45;&gt;host_trilogy_signalk</title>
<path fill="none" stroke="black" d="M2086.26,-256.06C2102.46,-225.35 2134.42,-164.77 2156.72,-122.51"/>
</g>
<!-- site_testboat -->
<g id="node16" class="node">
<title>site_testboat</title>
<ellipse fill="none" stroke="black" stroke-dasharray="5,2" cx="2388" cy="-276.5" rx="68.68" ry="20.51"/>
<text text-anchor="middle" x="2388" y="-274" font-family="Helvetica,sans-Serif" font-size="10.00">192.168.97.0/24</text>
</g>
<!-- site_testboat&#45;&gt;host_testboat_labdns -->
<g id="edge10" class="edge">
<title>site_testboat&#45;&gt;host_testboat_labdns</title>
<path fill="none" stroke="black" d="M2388,-255.69C2388,-227.87 2388,-176.06 2388,-135.28"/>
</g>
</g>
</svg>
