<?xml version="1.0" encoding="UTF-8" standalone="no"?>
<!DOCTYPE svg PUBLIC "-//W3C//DTD SVG 1.1//EN"
 "http://www.w3.org/Graphics/SVG/1.1/DTD/svg11.dtd">
<!-- Generated by graphviz version 2.43.0 (0)
 -->
<!-- Title: mudpi_network Pages: 1 -->
<svg width="3156pt" height="388pt"
 viewBox="0.00 0.00 3155.80 388.14" xmlns="http://www.w3.org/2000/svg" xmlns:xlink="http://www.w3.org/1999/xlink">
<g id="graph0" class="graph" transform="scale(1 1) rotate(0) translate(14.4 373.74)">
<title>mudpi_network</title>
<polygon fill="white" stroke="transparent" points="-14.4,14.4 -14.4,-373.74 3141.4,-373.74 3141.4,14.4 -14.4,14.4"/>
<text text-anchor="middle" x="1563.5" y="-339.34" font-family="Times,serif" font-size="20.00">MudPi Distributed Network</text>
<g id="clust1" class="cluster">
<title>cluster_vpn</title>
<path fill="none" stroke="black" stroke-dasharray="5,2" d="M20,-8C20,-8 512,-8 512,-8 518,-8 524,-14 524,-20 524,-20 524,-186.33 524,-186.33 524,-192.33 518,-198.33 512,-198.33 512,-198.33 20,-198.33 20,-198.33 14,-198.33 8,-192.33 8,-186.33 8,-186.33 8,-20 8,-20 8,-14 14,-8 20,-8"/>
<text text-anchor="middle" x="266" y="-184.73" font-family="Times,serif" font-size="12.00">vpn\nvpn.home.arpa\nOverlay 10.8.1.0/24\nHub 10.8.1.1</text>
</g>
<g id="clust2" class="cluster">
<title>cluster_reid</title>
<path fill="none" stroke="black" d="M556,-125.33C556,-125.33 1100,-125.33 1100,-125.33 1106,-125.33 1112,-131.33 1112,-137.33 1112,-137.33 1112,-309.34 1112,-309.34 1112,-315.34 1106,-321.34 1100,-321.34 1100,-321.34 556,-321.34 556,-321.34 550,-321.34 544,-315.34 544,-309.34 544,-309.34 544,-137.33 544,-137.33 544,-131.33 550,-125.33 556,-125.33"/>
<text text-anchor="middle" x="828" y="-307.74" font-family="Times,serif" font-size="12.00">reid\nreid.home.arpa\nLAN 10.1.1.0/24\nGW 10.1.1.1</text>
</g>
<g id="clust3" class="cluster">
<title>cluster_barkingowl</title>
<path fill="none" stroke="black" d="M1132,-8C1132,-8 1770,-8 1770,-8 1776,-8 1782,-14 1782,-20 1782,-20 1782,-191.67 1782,-191.67 1782,-197.67 1776,-203.67 1770,-203.67 1770,-203.67 1132,-203.67 1132,-203.67 1126,-203.67 1120,-197.67 1120,-191.67 1120,-191.67 1120,-20 1120,-20 1120,-14 1126,-8 1132,-8"/>
<text text-anchor="middle" x="1451" y="-190.07" font-family="Times,serif" font-size="12.00">barkingowl\nbarkingowl.home.arpa\nLAN 192.168.0.0/24\nGW 192.168.0.1</text>
</g>
<g id="clust4" class="cluster">
<title>cluster_trilogy</title>
<path fill="none" stroke="black" d="M2093,-8C2093,-8 2643,-8 2643,-8 2649,-8 2655,-14 2655,-20 2655,-20 2655,-191.67 2655,-191.67 2655,-197.67 2649,-203.67 2643,-203.67 2643,-203.67 2093,-203.67 2093,-203.67 2087,-203.67 2081,-197.67 2081,-191.67 2081,-191.67 2081,-20 2081,-20 2081,-14 2087,-8 2093,-8"/>
<text text-anchor="middle" x="2368" y="-190.07" font-family="Times,serif" font-size="12.00">trilogy\ntrilogy.home.arpa\nLAN 192.168.98.0/24\nGW 192.168.98.1</text>
</g>
<g id="clust5" class="cluster">
<title>cluster_testboat</title>
<path fill="none" stroke="black" d="M2681,-8C2681,-8 3107,-8 3107,-8 3113,-8 3119,-14 3119,-20 3119,-20 3119,-191.67 3119,-191.67 3119,-197.67 3113,-203.67 3107,-203.67 3107,-203.67 2681,-203.67 2681,-203.67 2675,-203.67 2669,-197.67 2669,-191.67 2669,-191.67 2669,-20 2669,-20 2669,-14 2675,-8 2681,-8"/>
<text text-anchor="middle" x="2894" y="-190.07" font-family="Times,serif" font-size="12.00">testboat\ntestboat.home.arpa\nLAN 192.168.97.0/24\nGW 192.168.97.1</text>
</g>
<!-- host_vpn_laptop -->
<g id="node1" class="node">
<title>host_vpn_laptop</title>
<path fill="none" stroke="black" d="M364,-52C364,-52 168,-52 168,-52 162,-52 156,-46 156,-40 156,-40 156,-28 156,-28 156,-22 162,-16 168,-16 168,-16 364,-16 364,-16 370,-16 376,-22 376,-28 376,-28 376,-40 376,-40 376,-46 370,-52 364,-52"/>
<text text-anchor="middle" x="266" y="-31.5" font-family="Times,serif" font-size="10.00">laptop\nVPN 10.8.1.20\nroaming&#45;client</text>
</g>
<!-- host_reid_mudpi -->
<g id="node2" class="node">
<title>host_reid_mudpi</title>
<path fill="none" stroke="black" d="M503.5,-169.33C503.5,-169.33 28.5,-169.33 28.5,-169.33 22.5,-169.33 16.5,-163.33 16.5,-157.33 16.5,-157.33 16.5,-145.33 16.5,-145.33 16.5,-139.33 22.5,-133.33 28.5,-133.33 28.5,-133.33 503.5,-133.33 503.5,-133.33 509.5,-133.33 515.5,-139.33 515.5,-145.33 515.5,-145.33 515.5,-157.33 515.5,-157.33 515.5,-163.33 509.5,-169.33 503.5,-169.33"/>
<text text-anchor="middle" x="266" y="-148.83" font-family="Times,serif" font-size="10.00">mudpi\nLAN 10.1.1.10\nVPN 10.8.1.1\nwireguard&#45;hub, dns, dhcp, ntp&#45;stratum1, dynamic&#45;dns</text>
</g>
<!-- host_reid_mudpi&#45;&gt;host_vpn_laptop -->
<g id="edge12" class="edge">
<title>host_reid_mudpi&#45;&gt;host_vpn_laptop</title>
<path fill="none" stroke="black" stroke-dasharray="5,2" d="M266,-123.26C266,-123.26 266,-62.29 266,-62.29"/>
<polygon fill="black" stroke="black" points="269.5,-62.29 266,-52.29 262.5,-62.29 269.5,-62.29"/>
<polygon fill="black" stroke="black" points="262.5,-123.26 266,-133.26 269.5,-123.26 262.5,-123.26"/>
<text text-anchor="middle" x="292" y="-87.8" font-family="Times,serif" font-size="9.00">WireGuard</text>
</g>
<!-- host_barkingowl_shedpi -->
<g id="node6" class="node">
<title>host_barkingowl_shedpi</title>
<path fill="none" stroke="black" d="M1478.5,-52C1478.5,-52 1139.5,-52 1139.5,-52 1133.5,-52 1127.5,-46 1127.5,-40 1127.5,-40 1127.5,-28 1127.5,-28 1127.5,-22 1133.5,-16 1139.5,-16 1139.5,-16 1478.5,-16 1478.5,-16 1484.5,-16 1490.5,-22 1490.5,-28 1490.5,-28 1490.5,-40 1490.5,-40 1490.5,-46 1484.5,-52 1478.5,-52"/>
<text text-anchor="middle" x="1309" y="-31.5" font-family="Times,serif" font-size="10.00">shedpi\nLAN 192.168.0.10\nVPN 10.8.1.30\ndns, dhcp, farm&#45;server</text>
</g>
<!-- host_reid_mudpi&#45;&gt;host_barkingowl_shedpi -->
<g id="edge9" class="edge">
<title>host_reid_mudpi&#45;&gt;host_barkingowl_shedpi</title>
<path fill="none" stroke="black" stroke-dasharray="5,2" d="M415.86,-122.95C415.86,-122.95 415.86,-40 415.86,-40 415.86,-40 1117.45,-40 1117.45,-40"/>
<polygon fill="black" stroke="black" points="412.36,-122.95 415.86,-132.95 419.36,-122.95 412.36,-122.95"/>
<polygon fill="black" stroke="black" points="1117.45,-43.5 1127.45,-40 1117.45,-36.5 1117.45,-43.5"/>
<text text-anchor="middle" x="491" y="-87.8" font-family="Times,serif" font-size="9.00">WireGuard</text>
</g>
<!-- host_reid_mudpi&#45;&gt;host_barkingowl_shedpi -->
<g id="edge13" class="edge">
<title>host_reid_mudpi&#45;&gt;host_barkingowl_shedpi</title>
<path fill="none" stroke="black" stroke-dasharray="1,5" d="M395.93,-133.14C395.93,-98.83 395.93,-28 395.93,-28 395.93,-28 1117.24,-28 1117.24,-28"/>
<polygon fill="black" stroke="black" points="1117.24,-31.5 1127.24,-28 1117.24,-24.5 1117.24,-31.5"/>
<text text-anchor="middle" x="695" y="-87.8" font-family="Times,serif" font-size="9.00">DNS forward barkingowl.home.arpa</text>
</g>
<!-- host_trilogy_boatdns -->
<g id="node9" class="node">
<title>host_trilogy_boatdns</title>
<path fill="none" stroke="black" d="M2387,-52C2387,-52 2101,-52 2101,-52 2095,-52 2089,-46 2089,-40 2089,-40 2089,-28 2089,-28 2089,-22 2095,-16 2101,-16 2101,-16 2387,-16 2387,-16 2393,-16 2399,-22 2399,-28 2399,-28 2399,-40 2399,-40 2399,-46 2393,-52 2387,-52"/>
<text text-anchor="middle" x="2244" y="-31.5" font-family="Times,serif" font-size="10.00">boatdns\nLAN 192.168.98.10\nVPN 10.8.1.40\ndns, dhcp</text>
</g>
<!-- host_reid_mudpi&#45;&gt;host_trilogy_boatdns -->
<g id="edge10" class="edge">
<title>host_reid_mudpi&#45;&gt;host_trilogy_boatdns</title>
<path fill="none" stroke="black" stroke-dasharray="5,2" d="M455.71,-123.12C455.71,-123.12 455.71,-82 455.71,-82 455.71,-82 2243.39,-82 2243.39,-82 2243.39,-82 2243.39,-62.15 2243.39,-62.15"/>
<polygon fill="black" stroke="black" points="452.21,-123.12 455.71,-133.12 459.21,-123.12 452.21,-123.12"/>
<polygon fill="black" stroke="black" points="2246.89,-62.15 2243.39,-52.15 2239.89,-62.15 2246.89,-62.15"/>
<text text-anchor="middle" x="873" y="-87.8" font-family="Times,serif" font-size="9.00">WireGuard</text>
</g>
<!-- host_reid_mudpi&#45;&gt;host_trilogy_boatdns -->
<g id="edge15" class="edge">
<title>host_reid_mudpi&#45;&gt;host_trilogy_boatdns</title>
<path fill="none" stroke="black" stroke-dasharray="1,5" d="M435.79,-133.04C435.79,-108.23 435.79,-67 435.79,-67 435.79,-67 2166.19,-67 2166.19,-67 2166.19,-67 2166.19,-62.04 2166.19,-62.04"/>
<polygon fill="black" stroke="black" points="2169.69,-62.04 2166.19,-52.04 2162.69,-62.04 2169.69,-62.04"/>
<text text-anchor="middle" x="1025.5" y="-87.8" font-family="Times,serif" font-size="9.00">DNS forward trilogy.home.arpa</text>
</g>
<!-- host_testboat_labdns -->
<g id="node12" class="node">
<title>host_testboat_labdns</title>
<path fill="none" stroke="black" d="M2973.5,-52C2973.5,-52 2694.5,-52 2694.5,-52 2688.5,-52 2682.5,-46 2682.5,-40 2682.5,-40 2682.5,-28 2682.5,-28 2682.5,-22 2688.5,-16 2694.5,-16 2694.5,-16 2973.5,-16 2973.5,-16 2979.5,-16 2985.5,-22 2985.5,-28 2985.5,-28 2985.5,-40 2985.5,-40 2985.5,-46 2979.5,-52 2973.5,-52"/>
<text text-anchor="middle" x="2834" y="-31.5" font-family="Times,serif" font-size="10.00">labdns\nLAN 192.168.97.10\nVPN 10.8.1.50\ndns, dhcp</text>
</g>
<!-- host_reid_mudpi&#45;&gt;host_testboat_labdns -->
<g id="edge11" class="edge">
<title>host_reid_mudpi&#45;&gt;host_testboat_labdns</title>
<path fill="none" stroke="black" stroke-dasharray="5,2" d="M495.57,-123.05C495.57,-123.05 495.57,-112 495.57,-112 495.57,-112 2735.89,-112 2735.89,-112 2735.89,-112 2735.89,-62.09 2735.89,-62.09"/>
<polygon fill="black" stroke="black" points="492.07,-123.05 495.57,-133.05 499.07,-123.05 492.07,-123.05"/>
<polygon fill="black" stroke="black" points="2739.39,-62.09 2735.89,-52.09 2732.39,-62.09 2739.39,-62.09"/>
<text text-anchor="middle" x="2047" y="-87.8" font-family="Times,serif" font-size="9.00">WireGuard</text>
</g>
<!-- host_reid_mudpi&#45;&gt;host_testboat_labdns -->
<g id="edge14" class="edge">
<title>host_reid_mudpi&#45;&gt;host_testboat_labdns</title>
<path fill="none" stroke="black" stroke-dasharray="1,5" d="M475.64,-133.24C475.64,-117.44 475.64,-97 475.64,-97 475.64,-97 2709.19,-97 2709.19,-97 2709.19,-97 2709.19,-62.22 2709.19,-62.22"/>
<polygon fill="black" stroke="black" points="2712.69,-62.22 2709.19,-52.22 2705.69,-62.22 2712.69,-62.22"/>
<text text-anchor="middle" x="1903" y="-87.8" font-family="Times,serif" font-size="9.00">DNS forward testboat.home.arpa</text>
</g>
<!-- host_reid_router -->
<g id="node3" class="node">
<title>host_reid_router</title>
<polygon fill="none" stroke="black" points="734,-169.33 556,-169.33 552,-165.33 552,-133.33 730,-133.33 734,-137.33 734,-169.33"/>
<polyline fill="none" stroke="black" points="730,-165.33 552,-165.33 "/>
<polyline fill="none" stroke="black" points="730,-165.33 730,-133.33 "/>
<polyline fill="none" stroke="black" points="730,-165.33 734,-169.33 "/>
<text text-anchor="middle" x="643" y="-148.83" font-family="Times,serif" font-size="10.00">router\nLAN 10.1.1.1\ngateway</text>
</g>
<!-- host_reid_shorepi -->
<g id="node4" class="node">
<title>host_reid_shorepi</title>
<path fill="none" stroke="black" d="M1092,-169.33C1092,-169.33 782,-169.33 782,-169.33 776,-169.33 770,-163.33 770,-157.33 770,-157.33 770,-145.33 770,-145.33 770,-139.33 776,-133.33 782,-133.33 782,-133.33 1092,-133.33 1092,-133.33 1098,-133.33 1104,-139.33 1104,-145.33 1104,-145.33 1104,-157.33 1104,-157.33 1104,-163.33 1098,-169.33 1092,-169.33"/>
<text text-anchor="middle" x="937" y="-148.83" font-family="Times,serif" font-size="10.00">shorepi\nLAN 10.1.1.20\nsignalk, influxdb, grafana, app&#45;host</text>
</g>
<!-- site_reid -->
<g id="node5" class="node">
<title>site_reid</title>
<ellipse fill="none" stroke="black" cx="643" cy="-269" rx="54.39" ry="23.17"/>
<text text-anchor="middle" x="643" y="-266.5" font-family="Times,serif" font-size="10.00">10.1.1.0/24</text>
</g>
<!-- site_reid&#45;&gt;host_reid_mudpi -->
<g id="edge1" class="edge">
<title>site_reid&#45;&gt;host_reid_mudpi</title>
<path fill="none" stroke="black" d="M588.18,-269C483.62,-269 266,-269 266,-269 266,-269 266,-202.47 266,-169.46"/>
</g>
<!-- site_reid&#45;&gt;host_reid_router -->
<g id="edge2" class="edge">
<title>site_reid&#45;&gt;host_reid_router</title>
<path fill="none" stroke="black" d="M643,-245.47C643,-223.07 643,-189.84 643,-169.44"/>
</g>
<!-- site_reid&#45;&gt;host_reid_shorepi -->
<g id="edge3" class="edge">
<title>site_reid&#45;&gt;host_reid_shorepi</title>
<path fill="none" stroke="black" d="M697.61,-269C782.63,-269 937,-269 937,-269 937,-269 937,-202.47 937,-169.46"/>
</g>
<!-- host_barkingowl_weatherstation -->
<g id="node7" class="node">
<title>host_barkingowl_weatherstation</title>
<path fill="none" stroke="black" d="M1762,-52C1762,-52 1538,-52 1538,-52 1532,-52 1526,-46 1526,-40 1526,-40 1526,-28 1526,-28 1526,-22 1532,-16 1538,-16 1538,-16 1762,-16 1762,-16 1768,-16 1774,-22 1774,-28 1774,-28 1774,-40 1774,-40 1774,-46 1768,-52 1762,-52"/>
<text text-anchor="middle" x="1650" y="-31.5" font-family="Times,serif" font-size="10.00">weatherstation\nLAN 192.168.0.50\nweather</text>
</g>
<!-- site_barkingowl -->
<g id="node8" class="node">
<title>site_barkingowl</title>
<ellipse fill="none" stroke="black" cx="1479" cy="-151.33" rx="67.35" ry="23.17"/>
<text text-anchor="middle" x="1479" y="-148.83" font-family="Times,serif" font-size="10.00">192.168.0.0/24</text>
</g>
<!-- site_barkingowl&#45;&gt;host_barkingowl_shedpi -->
<g id="edge4" class="edge">
<title>site_barkingowl&#45;&gt;host_barkingowl_shedpi</title>
<path fill="none" stroke="black" d="M1451.16,-130.09C1451.16,-107.76 1451.16,-73.04 1451.16,-52.02"/>
</g>
<!-- site_barkingowl&#45;&gt;host_barkingowl_weatherstation -->
<g id="edge5" class="edge">
<title>site_barkingowl&#45;&gt;host_barkingowl_weatherstation</title>
<path fill="none" stroke="black" d="M1536.09,-138.78C1536.09,-117.97 1536.09,-76.25 1536.09,-52.2"/>
</g>
<!-- host_trilogy_signalk -->
<g id="node10" class="node">
<title>host_trilogy_signalk</title>
<path fill="none" stroke="black" d="M2634.5,-52C2634.5,-52 2447.5,-52 2447.5,-52 2441.5,-52 2435.5,-46 2435.5,-40 2435.5,-40 2435.5,-28 2435.5,-28 2435.5,-22 2441.5,-16 2447.5,-16 2447.5,-16 2634.5,-16 2634.5,-16 2640.5,-16 2646.5,-22 2646.5,-28 2646.5,-28 2646.5,-40 2646.5,-40 2646.5,-46 2640.5,-52 2634.5,-52"/>
<text text-anchor="middle" x="2541" y="-31.5" font-family="Times,serif" font-size="10.00">signalk\nLAN 192.168.98.20\nsignalk</text>
</g>
<!-- site_trilogy -->
<g id="node11" class="node">
<title>site_trilogy</title>
<ellipse fill="none" stroke="black" cx="2392" cy="-151.33" rx="71.34" ry="23.17"/>
<text text-anchor="middle" x="2392" y="-148.83" font-family="Times,serif" font-size="10.00">192.168.98.0/24</text>
</g>
<!-- site_trilogy&#45;&gt;host_trilogy_boatdns -->
<g id="edge6" class="edge">
<title>site_trilogy&#45;&gt;host_trilogy_boatdns</title>
<path fill="none" stroke="black" d="M2359.79,-130.36C2359.79,-108.08 2359.79,-73.22 2359.79,-52.1"/>
</g>
<!-- site_trilogy&#45;&gt;host_trilogy_signalk -->
<g id="edge7" class="edge">
<title>site_trilogy&#45;&gt;host_trilogy_signalk</title>
<path fill="none" stroke="black" d="M2449.46,-137.41C2449.46,-116.17 2449.46,-75.64 2449.46,-52.13"/>
</g>
<!-- site_testboat -->
<g id="node13" class="node">
<title>site_testboat</title>
<ellipse fill="none" stroke="black" cx="2834" cy="-151.33" rx="71.34" ry="23.17"/>
<text text-anchor="middle" x="2834" y="-148.83" font-family="Times,serif" font-size="10.00">192.168.97.0/24</text>
</g>
<!-- site_testboat&#45;&gt;host_testboat_labdns -->
<g id="edge8" class="edge">
<title>site_testboat&#45;&gt;host_testboat_labdns</title>
<path fill="none" stroke="black" d="M2834,-127.87C2834,-105.54 2834,-72.39 2834,-52.05"/>
</g>
</g>
</svg>
