<?xml version="1.0" encoding="UTF-8" standalone="no"?>
<!DOCTYPE svg PUBLIC "-//W3C//DTD SVG 1.1//EN"
 "http://www.w3.org/Graphics/SVG/1.1/DTD/svg11.dtd">
<!-- Generated by graphviz version 2.43.0 (0)
 -->
<!-- Title: mudpi_network Pages: 1 -->
<svg width="2733pt" height="801pt"
 viewBox="0.00 0.00 2733.00 801.00" xmlns="http://www.w3.org/2000/svg" xmlns:xlink="http://www.w3.org/1999/xlink">
<g id="graph0" class="graph" transform="scale(1 1) rotate(0) translate(18 783)">
<title>mudpi_network</title>
<polygon fill="white" stroke="transparent" points="-18,18 -18,-783 2715,-783 2715,18 -18,18"/>
<text text-anchor="middle" x="1348.5" y="-745" font-family="Helvetica,sans-Serif" font-size="20.00">MudPi Distributed Network (Full)</text>
<g id="clust1" class="cluster">
<title>cluster_vpn</title>
<path fill="none" stroke="black" stroke-width="1.5" stroke-dasharray="5,2" d="M20,-20.5C20,-20.5 314,-20.5 314,-20.5 320,-20.5 326,-26.5 326,-32.5 326,-32.5 326,-440 326,-440 326,-446 320,-452 314,-452 314,-452 20,-452 20,-452 14,-452 8,-446 8,-440 8,-440 8,-32.5 8,-32.5 8,-26.5 14,-20.5 20,-20.5"/>
<text text-anchor="start" x="146" y="-433" font-family="Helvetica,sans-Serif" font-weight="bold" font-size="20.00">vpn</text>
<text text-anchor="start" x="91.5" y="-413" font-family="Helvetica,sans-Serif" font-size="20.00">vpn.home.arpa</text>
<text text-anchor="start" x="68" y="-393" font-family="Helvetica,sans-Serif" font-size="20.00">Overlay 10.8.1.0/24</text>
<text text-anchor="start" x="102.5" y="-373" font-family="Helvetica,sans-Serif" font-size="20.00">Hub 10.8.1.1</text>
<text text-anchor="start" x="110.5" y="-353" font-family="Helvetica,sans-Serif" font-size="20.00">DNS mudpi</text>
</g>
<g id="clust2" class="cluster">
<title>cluster_reid</title>
<path fill="none" stroke="black" stroke-width="1.5" d="M358,-211.5C358,-211.5 1273,-211.5 1273,-211.5 1279,-211.5 1285,-217.5 1285,-223.5 1285,-223.5 1285,-715 1285,-715 1285,-721 1279,-727 1273,-727 1273,-727 358,-727 358,-727 352,-727 346,-721 346,-715 346,-715 346,-223.5 346,-223.5 346,-217.5 352,-211.5 358,-211.5"/>
<text text-anchor="start" x="793" y="-708" font-family="Helvetica,sans-Serif" font-weight="bold" font-size="20.00">reid</text>
<text text-anchor="start" x="740" y="-688" font-family="Helvetica,sans-Serif" font-size="20.00">reid.home.arpa</text>
<text text-anchor="start" x="735.5" y="-668" font-family="Helvetica,sans-Serif" font-size="20.00">LAN 10.1.1.0/24</text>
<text text-anchor="start" x="753.5" y="-648" font-family="Helvetica,sans-Serif" font-size="20.00">GW 10.1.1.1</text>
<text text-anchor="start" x="759" y="-628" font-family="Helvetica,sans-Serif" font-size="20.00">DNS mudpi</text>
<text text-anchor="start" x="752" y="-608" font-family="Helvetica,sans-Serif" font-size="20.00">DHCP mudpi</text>
</g>
<g id="clust3" class="cluster">
<title>cluster_barkingowl</title>
<path fill="none" stroke="black" stroke-width="1.5" d="M1305,-8C1305,-8 1739,-8 1739,-8 1745,-8 1751,-14 1751,-20 1751,-20 1751,-421.01 1751,-421.01 1751,-427.01 1745,-433.01 1739,-433.01 1739,-433.01 1305,-433.01 1305,-433.01 1299,-433.01 1293,-427.01 1293,-421.01 1293,-421.01 1293,-20 1293,-20 1293,-14 1299,-8 1305,-8"/>
<text text-anchor="start" x="1459" y="-414.01" font-family="Helvetica,sans-Serif" font-weight="bold" font-size="20.00">barkingowl</text>
<text text-anchor="start" x="1410.5" y="-394.01" font-family="Helvetica,sans-Serif" font-size="20.00">barkingowl.home.arpa</text>
<text text-anchor="start" x="1422.5" y="-374.01" font-family="Helvetica,sans-Serif" font-size="20.00">LAN 192.168.0.0/24</text>
<text text-anchor="start" x="1441" y="-354.01" font-family="Helvetica,sans-Serif" font-size="20.00">GW 192.168.0.1</text>
<text text-anchor="start" x="1464" y="-334.01" font-family="Helvetica,sans-Serif" font-size="20.00">DNS shedpi</text>
<text text-anchor="start" x="1457" y="-314.01" font-family="Helvetica,sans-Serif" font-size="20.00">DHCP shedpi</text>
</g>
<g id="clust4" class="cluster">
<title>cluster_trilogy</title>
<path fill="none" stroke="black" stroke-width="1.5" d="M2055,-8C2055,-8 2433,-8 2433,-8 2439,-8 2445,-14 2445,-20 2445,-20 2445,-421.01 2445,-421.01 2445,-427.01 2439,-433.01 2433,-433.01 2433,-433.01 2055,-433.01 2055,-433.01 2049,-433.01 2043,-427.01 2043,-421.01 2043,-421.01 2043,-20 2043,-20 2043,-14 2049,-8 2055,-8"/>
<text text-anchor="start" x="2207" y="-414.01" font-family="Helvetica,sans-Serif" font-weight="bold" font-size="20.00">trilogy</text>
<text text-anchor="start" x="2157" y="-394.01" font-family="Helvetica,sans-Serif" font-size="20.00">trilogy.home.arpa</text>
<text text-anchor="start" x="2138.5" y="-374.01" font-family="Helvetica,sans-Serif" font-size="20.00">LAN 192.168.98.0/24</text>
<text text-anchor="start" x="2156.5" y="-354.01" font-family="Helvetica,sans-Serif" font-size="20.00">GW 192.168.98.1</text>
<text text-anchor="start" x="2179" y="-334.01" font-family="Helvetica,sans-Serif" font-size="20.00">DNS boatdns</text>
<text text-anchor="start" x="2172" y="-314.01" font-family="Helvetica,sans-Serif" font-size="20.00">DHCP boatdns</text>
</g>
<g id="clust5" class="cluster">
<title>cluster_testboat</title>
<path fill="none" stroke="black" stroke-width="1.5" d="M2474,-8C2474,-8 2677,-8 2677,-8 2683,-8 2689,-14 2689,-20 2689,-20 2689,-421.01 2689,-421.01 2689,-427.01 2683,-433.01 2677,-433.01 2677,-433.01 2474,-433.01 2474,-433.01 2468,-433.01 2462,-427.01 2462,-421.01 2462,-421.01 2462,-20 2462,-20 2462,-14 2468,-8 2474,-8"/>
<text text-anchor="start" x="2527" y="-414.01" font-family="Helvetica,sans-Serif" font-weight="bold" font-size="20.00">testboat</text>
<text text-anchor="start" x="2477.5" y="-394.01" font-family="Helvetica,sans-Serif" font-size="20.00">testboat.home.arpa</text>
<text text-anchor="start" x="2470" y="-374.01" font-family="Helvetica,sans-Serif" font-size="20.00">LAN 192.168.97.0/24</text>
<text text-anchor="start" x="2488" y="-354.01" font-family="Helvetica,sans-Serif" font-size="20.00">GW 192.168.97.1</text>
<text text-anchor="start" x="2517.5" y="-334.01" font-family="Helvetica,sans-Serif" font-size="20.00">DNS labdns</text>
<text text-anchor="start" x="2510.5" y="-314.01" font-family="Helvetica,sans-Serif" font-size="20.00">DHCP labdns</text>
</g>
<!-- host_vpn_laptop -->
<g id="node1" class="node">
<title>host_vpn_laptop</title>
<polygon fill="white" stroke="transparent" points="267.5,-122.5 66.5,-122.5 66.5,-28.5 267.5,-28.5 267.5,-122.5"/>
<polygon fill="none" stroke="black" points="68,-98.5 68,-121.5 267,-121.5 267,-98.5 68,-98.5"/>
<text text-anchor="start" x="149" y="-108.5" font-family="Helvetica,sans-Serif" font-weight="bold" font-size="10.00">laptop</text>
<polygon fill="none" stroke="black" points="68,-75.5 68,-98.5 267,-98.5 267,-75.5 68,-75.5"/>
<text text-anchor="start" x="113.5" y="-84.5" font-family="Helvetica,sans-Serif" font-size="10.00">laptop.vpn.home.arpa</text>
<polygon fill="none" stroke="black" points="68,-52.5 68,-75.5 267,-75.5 267,-52.5 68,-52.5"/>
<text text-anchor="start" x="74" y="-61.5" font-family="Helvetica,sans-Serif" font-size="10.00">VPN 10.8.1.20 (laptop.vpn.home.arpa)</text>
<polygon fill="none" stroke="black" points="68,-29.5 68,-52.5 267,-52.5 267,-29.5 68,-29.5"/>
<text text-anchor="start" x="74" y="-38.5" font-family="Helvetica,sans-Serif" font-size="10.00">roaming&#45;client</text>
<polygon fill="none" stroke="black" points="66.5,-28.5 66.5,-122.5 267.5,-122.5 267.5,-28.5 66.5,-28.5"/>
</g>
<!-- host_reid_mudpi -->
<g id="node2" class="node">
<title>host_reid_mudpi</title>
<polygon fill="white" stroke="transparent" stroke-width="2.1" points="318,-336 16,-336 16,-217 318,-217 318,-336"/>
<polygon fill="none" stroke="black" points="18,-310.5 18,-333.5 316,-333.5 316,-310.5 18,-310.5"/>
<text text-anchor="start" x="148.5" y="-320.5" font-family="Helvetica,sans-Serif" font-weight="bold" font-size="10.00">mudpi</text>
<polygon fill="none" stroke="black" points="18,-287.5 18,-310.5 316,-310.5 316,-287.5 18,-287.5"/>
<text text-anchor="start" x="112.5" y="-296.5" font-family="Helvetica,sans-Serif" font-size="10.00">mudpi.reid.home.arpa</text>
<polygon fill="none" stroke="black" points="18,-264.5 18,-287.5 316,-287.5 316,-264.5 18,-264.5"/>
<text text-anchor="start" x="24" y="-273.5" font-family="Helvetica,sans-Serif" font-size="10.00">LAN 10.1.1.10</text>
<polygon fill="none" stroke="black" points="18,-241.5 18,-264.5 316,-264.5 316,-241.5 18,-241.5"/>
<text text-anchor="start" x="24" y="-250.5" font-family="Helvetica,sans-Serif" font-size="10.00">VPN 10.8.1.1 (mudpi.vpn.home.arpa)</text>
<polygon fill="none" stroke="black" points="18,-218.5 18,-241.5 316,-241.5 316,-218.5 18,-218.5"/>
<text text-anchor="start" x="24" y="-227.5" font-family="Helvetica,sans-Serif" font-size="10.00">wireguard&#45;hub • dns • dhcp • ntp&#45;stratum1 • dynamic&#45;dns</text>
<polygon fill="none" stroke="black" stroke-width="2" points="17,-218 17,-335 317,-335 317,-218 17,-218"/>
</g>
<!-- host_reid_mudpi&#45;&gt;host_vpn_laptop -->
<g id="edge15" class="edge">
<title>host_reid_mudpi&#45;&gt;host_vpn_laptop</title>
<path fill="none" stroke="black" stroke-width="1.4" stroke-dasharray="5,2" d="M167,-206.82C167,-182.73 167,-155.97 167,-133"/>
<polygon fill="black" stroke="black" stroke-width="1.4" points="163.5,-206.87 167,-216.87 170.5,-206.87 163.5,-206.87"/>
<polygon fill="black" stroke="black" stroke-width="1.4" points="170.5,-132.73 167,-122.73 163.5,-132.73 170.5,-132.73"/>
<text text-anchor="middle" x="191.5" y="-173.8" font-family="Helvetica,sans-Serif" font-size="9.00">WireGuard</text>
</g>
<!-- host_barkingowl_shedpi -->
<g id="node10" class="node">
<title>host_barkingowl_shedpi</title>
<polygon fill="white" stroke="transparent" stroke-width="2.1" points="1505,-135 1301,-135 1301,-16 1505,-16 1505,-135"/>
<polygon fill="none" stroke="black" points="1303,-109.5 1303,-132.5 1503,-132.5 1503,-109.5 1303,-109.5"/>
<text text-anchor="start" x="1383.5" y="-119.5" font-family="Helvetica,sans-Serif" font-weight="bold" font-size="10.00">shedpi</text>
<polygon fill="none" stroke="black" points="1303,-86.5 1303,-109.5 1503,-109.5 1503,-86.5 1303,-86.5"/>
<text text-anchor="start" x="1330.5" y="-95.5" font-family="Helvetica,sans-Serif" font-size="10.00">shedpi.barkingowl.home.arpa</text>
<polygon fill="none" stroke="black" points="1303,-63.5 1303,-86.5 1503,-86.5 1503,-63.5 1303,-63.5"/>
<text text-anchor="start" x="1309" y="-72.5" font-family="Helvetica,sans-Serif" font-size="10.00">LAN 192.168.0.10</text>
<polygon fill="none" stroke="black" points="1303,-40.5 1303,-63.5 1503,-63.5 1503,-40.5 1303,-40.5"/>
<text text-anchor="start" x="1309" y="-49.5" font-family="Helvetica,sans-Serif" font-size="10.00">VPN 10.8.1.30 (shedpi.vpn.home.arpa)</text>
<polygon fill="none" stroke="black" points="1303,-17.5 1303,-40.5 1503,-40.5 1503,-17.5 1303,-17.5"/>
<text text-anchor="start" x="1309" y="-26.5" font-family="Helvetica,sans-Serif" font-size="10.00">dns • dhcp • farm&#45;server</text>
<polygon fill="none" stroke="black" stroke-width="2" points="1302,-17 1302,-134 1504,-134 1504,-17 1302,-17"/>
</g>
<!-- host_reid_mudpi&#45;&gt;host_barkingowl_shedpi -->
<g id="edge12" class="edge">
<title>host_reid_mudpi&#45;&gt;host_barkingowl_shedpi</title>
<path fill="none" stroke="black" stroke-width="1.4" stroke-dasharray="5,2" d="M327.65,-215.02C333.56,-212.8 337,-211.5 337,-211.5 337,-211.5 632,-171 632,-171 632,-171 1076.66,-116.5 1290.61,-90.28"/>
<polygon fill="black" stroke="black" stroke-width="1.4" points="326.28,-211.79 318.16,-218.59 328.75,-218.35 326.28,-211.79"/>
<polygon fill="black" stroke="black" stroke-width="1.4" points="1291.12,-93.74 1300.62,-89.05 1290.27,-86.79 1291.12,-93.74"/>
<text text-anchor="middle" x="656.5" y="-173.8" font-family="Helvetica,sans-Serif" font-size="9.00">WireGuard</text>
</g>
<!-- host_reid_mudpi&#45;&gt;host_barkingowl_shedpi -->
<g id="edge16" class="edge">
<title>host_reid_mudpi&#45;&gt;host_barkingowl_shedpi</title>
<path fill="none" stroke="black" stroke-dasharray="1,5" d="M318.16,-218.59C329.71,-214.24 337,-211.5 337,-211.5 337,-211.5 686,-181 686,-181 686,-181 1088.83,-122.29 1290.61,-92.88"/>
<polygon fill="black" stroke="black" points="1291.26,-96.32 1300.65,-91.42 1290.25,-89.4 1291.26,-96.32"/>
<text text-anchor="middle" x="828" y="-173.8" font-family="Helvetica,sans-Serif" font-size="9.00">DNS forward barkingowl.home.arpa</text>
</g>
<!-- host_trilogy_boatdns -->
<g id="node13" class="node">
<title>host_trilogy_boatdns</title>
<polygon fill="white" stroke="transparent" stroke-width="2.1" points="2262.5,-135 2051.5,-135 2051.5,-16 2262.5,-16 2262.5,-135"/>
<polygon fill="none" stroke="black" points="2054,-109.5 2054,-132.5 2261,-132.5 2261,-109.5 2054,-109.5"/>
<text text-anchor="start" x="2134.5" y="-119.5" font-family="Helvetica,sans-Serif" font-weight="bold" font-size="10.00">boatdns</text>
<polygon fill="none" stroke="black" points="2054,-86.5 2054,-109.5 2261,-109.5 2261,-86.5 2054,-86.5"/>
<text text-anchor="start" x="2093.5" y="-95.5" font-family="Helvetica,sans-Serif" font-size="10.00">boatdns.trilogy.home.arpa</text>
<polygon fill="none" stroke="black" points="2054,-63.5 2054,-86.5 2261,-86.5 2261,-63.5 2054,-63.5"/>
<text text-anchor="start" x="2060" y="-72.5" font-family="Helvetica,sans-Serif" font-size="10.00">LAN 192.168.98.10</text>
<polygon fill="none" stroke="black" points="2054,-40.5 2054,-63.5 2261,-63.5 2261,-40.5 2054,-40.5"/>
<text text-anchor="start" x="2060" y="-49.5" font-family="Helvetica,sans-Serif" font-size="10.00">VPN 10.8.1.40 (boatdns.vpn.home.arpa)</text>
<polygon fill="none" stroke="black" points="2054,-17.5 2054,-40.5 2261,-40.5 2261,-17.5 2054,-17.5"/>
<text text-anchor="start" x="2060" y="-26.5" font-family="Helvetica,sans-Serif" font-size="10.00">dns • dhcp</text>
<polygon fill="none" stroke="black" stroke-width="2" points="2052.5,-17 2052.5,-134 2261.5,-134 2261.5,-17 2052.5,-17"/>
</g>
<!-- host_reid_mudpi&#45;&gt;host_trilogy_boatdns -->
<g id="edge13" class="edge">
<title>host_reid_mudpi&#45;&gt;host_trilogy_boatdns</title>
<path fill="none" stroke="black" stroke-width="1.4" stroke-dasharray="5,2" d="M327.65,-215.02C333.56,-212.8 337,-211.5 337,-211.5 337,-211.5 918,-181 918,-181 918,-181 1020,-171 1020,-171 1020,-171 1760,-135 1760,-135 1760,-135 1924.08,-110.82 2041.27,-93.55"/>
<polygon fill="black" stroke="black" stroke-width="1.4" points="326.28,-211.79 318.16,-218.59 328.75,-218.35 326.28,-211.79"/>
<polygon fill="black" stroke="black" stroke-width="1.4" points="2042.01,-96.98 2051.39,-92.06 2040.99,-90.06 2042.01,-96.98"/>
<text text-anchor="middle" x="1044.5" y="-173.8" font-family="Helvetica,sans-Serif" font-size="9.00">WireGuard</text>
</g>
<!-- host_reid_mudpi&#45;&gt;host_trilogy_boatdns -->
<g id="edge18" class="edge">
<title>host_reid_mudpi&#45;&gt;host_trilogy_boatdns</title>
<path fill="none" stroke="black" stroke-dasharray="1,5" d="M318.16,-218.59C329.71,-214.24 337,-211.5 337,-211.5 337,-211.5 1074,-181 1074,-181 1074,-181 1760,-135 1760,-135 1760,-135 1924.08,-110.82 2041.27,-93.55"/>
<polygon fill="black" stroke="black" points="2042.01,-96.98 2051.39,-92.06 2040.99,-90.06 2042.01,-96.98"/>
<text text-anchor="middle" x="1291.5" y="-173.8" font-family="Helvetica,sans-Serif" font-size="9.00">DNS forward trilogy.home.arpa</text>
</g>
<!-- host_testboat_labdns -->
<g id="node16" class="node">
<title>host_testboat_labdns</title>
<polygon fill="white" stroke="transparent" stroke-width="2.1" points="2677,-135 2473,-135 2473,-16 2677,-16 2677,-135"/>
<polygon fill="none" stroke="black" points="2475,-109.5 2475,-132.5 2675,-132.5 2675,-109.5 2475,-109.5"/>
<text text-anchor="start" x="2555.5" y="-119.5" font-family="Helvetica,sans-Serif" font-weight="bold" font-size="10.00">labdns</text>
<polygon fill="none" stroke="black" points="2475,-86.5 2475,-109.5 2675,-109.5 2675,-86.5 2475,-86.5"/>
<text text-anchor="start" x="2509" y="-95.5" font-family="Helvetica,sans-Serif" font-size="10.00">labdns.testboat.home.arpa</text>
<polygon fill="none" stroke="black" points="2475,-63.5 2475,-86.5 2675,-86.5 2675,-63.5 2475,-63.5"/>
<text text-anchor="start" x="2481" y="-72.5" font-family="Helvetica,sans-Serif" font-size="10.00">LAN 192.168.97.10</text>
<polygon fill="none" stroke="black" points="2475,-40.5 2475,-63.5 2675,-63.5 2675,-40.5 2475,-40.5"/>
<text text-anchor="start" x="2481" y="-49.5" font-family="Helvetica,sans-Serif" font-size="10.00">VPN 10.8.1.50 (labdns.vpn.home.arpa)</text>
<polygon fill="none" stroke="black" points="2475,-17.5 2475,-40.5 2675,-40.5 2675,-17.5 2475,-17.5"/>
<text text-anchor="start" x="2481" y="-26.5" font-family="Helvetica,sans-Serif" font-size="10.00">dns • dhcp</text>
<polygon fill="none" stroke="black" stroke-width="2" points="2474,-17 2474,-134 2676,-134 2676,-17 2474,-17"/>
</g>
<!-- host_reid_mudpi&#45;&gt;host_testboat_labdns -->
<g id="edge14" class="edge">
<title>host_reid_mudpi&#45;&gt;host_testboat_labdns</title>
<path fill="none" stroke="black" stroke-width="1.4" stroke-dasharray="5,2" d="M327.65,-215.02C333.56,-212.8 337,-211.5 337,-211.5 337,-211.5 1946,-181 1946,-181 1946,-181 2454,-135 2454,-135 2454,-135 2457.74,-133.19 2463.9,-130.21"/>
<polygon fill="black" stroke="black" stroke-width="1.4" points="326.28,-211.79 318.16,-218.59 328.75,-218.35 326.28,-211.79"/>
<polygon fill="black" stroke="black" stroke-width="1.4" points="2465.43,-133.36 2472.91,-125.86 2462.38,-127.06 2465.43,-133.36"/>
<text text-anchor="middle" x="2079.5" y="-173.8" font-family="Helvetica,sans-Serif" font-size="9.00">WireGuard</text>
</g>
<!-- host_reid_mudpi&#45;&gt;host_testboat_labdns -->
<g id="edge17" class="edge">
<title>host_reid_mudpi&#45;&gt;host_testboat_labdns</title>
<path fill="none" stroke="black" stroke-dasharray="1,5" d="M318.16,-218.59C329.71,-214.24 337,-211.5 337,-211.5 337,-211.5 1370,-181 1370,-181 1370,-181 2454,-135 2454,-135 2454,-135 2457.74,-133.19 2463.9,-130.21"/>
<polygon fill="black" stroke="black" points="2465.43,-133.36 2472.91,-125.86 2462.38,-127.06 2465.43,-133.36"/>
<text text-anchor="middle" x="1679" y="-173.8" font-family="Helvetica,sans-Serif" font-size="9.00">DNS forward testboat.home.arpa</text>
</g>
<!-- host_reid_abbhub -->
<g id="node3" class="node">
<title>host_reid_abbhub</title>
<polygon fill="white" stroke="transparent" stroke-width="1.2" points="1097,-323.5 957,-323.5 957,-229.5 1097,-229.5 1097,-323.5"/>
<polygon fill="none" stroke="black" points="958,-299.5 958,-322.5 1096,-322.5 1096,-299.5 958,-299.5"/>
<text text-anchor="start" x="1005.5" y="-309.5" font-family="Helvetica,sans-Serif" font-weight="bold" font-size="10.00">abbhub</text>
<polygon fill="none" stroke="black" points="958,-276.5 958,-299.5 1096,-299.5 1096,-276.5 958,-276.5"/>
<text text-anchor="start" x="970" y="-285.5" font-family="Helvetica,sans-Serif" font-size="10.00">abbhub.reid.home.arpa</text>
<polygon fill="none" stroke="black" points="958,-253.5 958,-276.5 1096,-276.5 1096,-253.5 958,-253.5"/>
<text text-anchor="start" x="964" y="-262.5" font-family="Helvetica,sans-Serif" font-size="10.00">LAN 10.1.1.6</text>
<polygon fill="none" stroke="black" points="958,-230.5 958,-253.5 1096,-253.5 1096,-230.5 958,-230.5"/>
<text text-anchor="start" x="964" y="-239.5" font-family="Helvetica,sans-Serif" font-size="10.00">solar&#45;monitor • appliance</text>
<polygon fill="none" stroke="black" points="957,-229.5 957,-323.5 1097,-323.5 1097,-229.5 957,-229.5"/>
</g>
<!-- host_reid_printer -->
<g id="node4" class="node">
<title>host_reid_printer</title>
<polygon fill="white" stroke="transparent" stroke-width="1.2" points="1162.5,-591 1039.5,-591 1039.5,-497 1162.5,-497 1162.5,-591"/>
<polygon fill="none" stroke="black" points="1041,-567 1041,-590 1162,-590 1162,-567 1041,-567"/>
<text text-anchor="start" x="1081.5" y="-577" font-family="Helvetica,sans-Serif" font-weight="bold" font-size="10.00">printer</text>
<polygon fill="none" stroke="black" points="1041,-544 1041,-567 1162,-567 1162,-544 1041,-544"/>
<text text-anchor="start" x="1047" y="-553" font-family="Helvetica,sans-Serif" font-size="10.00">printer.reid.home.arpa</text>
<polygon fill="none" stroke="black" points="1041,-521 1041,-544 1162,-544 1162,-521 1041,-521"/>
<text text-anchor="start" x="1047" y="-530" font-family="Helvetica,sans-Serif" font-size="10.00">printer • appliance</text>
<polygon fill="none" stroke="black" points="1041,-498 1041,-521 1162,-521 1162,-498 1041,-498"/>
<text text-anchor="start" x="1047" y="-507" font-family="Helvetica,sans-Serif" font-size="10.00">overview: hidden</text>
<polygon fill="none" stroke="black" points="1039.5,-497 1039.5,-591 1162.5,-591 1162.5,-497 1039.5,-497"/>
</g>
<!-- host_reid_printserver -->
<g id="node5" class="node">
<title>host_reid_printserver</title>
<polygon fill="white" stroke="transparent" stroke-width="1.5" points="1277,-323.5 1133,-323.5 1133,-229.5 1277,-229.5 1277,-323.5"/>
<polygon fill="none" stroke="black" points="1134,-299.5 1134,-322.5 1276,-322.5 1276,-299.5 1134,-299.5"/>
<text text-anchor="start" x="1172.5" y="-309.5" font-family="Helvetica,sans-Serif" font-weight="bold" font-size="10.00">printserver</text>
<polygon fill="none" stroke="black" points="1134,-276.5 1134,-299.5 1276,-299.5 1276,-276.5 1134,-276.5"/>
<text text-anchor="start" x="1140" y="-285.5" font-family="Helvetica,sans-Serif" font-size="10.00">printserver.reid.home.arpa</text>
<polygon fill="none" stroke="black" points="1134,-253.5 1134,-276.5 1276,-276.5 1276,-253.5 1134,-253.5"/>
<text text-anchor="start" x="1140" y="-262.5" font-family="Helvetica,sans-Serif" font-size="10.00">LAN 10.1.1.30</text>
<polygon fill="none" stroke="black" points="1134,-230.5 1134,-253.5 1276,-253.5 1276,-230.5 1134,-230.5"/>
<text text-anchor="start" x="1140" y="-239.5" font-family="Helvetica,sans-Serif" font-size="10.00">print&#45;server • utility</text>
<polygon fill="none" stroke="black" points="1133,-229.5 1133,-323.5 1277,-323.5 1277,-229.5 1133,-229.5"/>
</g>
<!-- host_reid_router -->
<g id="node6" class="node">
<title>host_reid_router</title>
<polygon fill="white" stroke="black" stroke-width="1.8" points="494,-333.5 358,-333.5 354,-329.5 354,-219.5 490,-219.5 494,-223.5 494,-333.5"/>
<polyline fill="none" stroke="black" stroke-width="1.8" points="490,-329.5 354,-329.5 "/>
<polyline fill="none" stroke="black" stroke-width="1.8" points="490,-329.5 490,-219.5 "/>
<polyline fill="none" stroke="black" stroke-width="1.8" points="490,-329.5 494,-333.5 "/>
<polygon fill="none" stroke="black" points="365,-299.5 365,-322.5 483,-322.5 483,-299.5 365,-299.5"/>
<text text-anchor="start" x="406" y="-309.5" font-family="Helvetica,sans-Serif" font-weight="bold" font-size="10.00">router</text>
<polygon fill="none" stroke="black" points="365,-276.5 365,-299.5 483,-299.5 483,-276.5 365,-276.5"/>
<text text-anchor="start" x="371" y="-285.5" font-family="Helvetica,sans-Serif" font-size="10.00">router.reid.home.arpa</text>
<polygon fill="none" stroke="black" points="365,-253.5 365,-276.5 483,-276.5 483,-253.5 365,-253.5"/>
<text text-anchor="start" x="371" y="-262.5" font-family="Helvetica,sans-Serif" font-size="10.00">LAN 10.1.1.1</text>
<polygon fill="none" stroke="black" points="365,-230.5 365,-253.5 483,-253.5 483,-230.5 365,-230.5"/>
<text text-anchor="start" x="371" y="-239.5" font-family="Helvetica,sans-Serif" font-size="10.00">gateway</text>
<polygon fill="none" stroke="black" stroke-width="2" points="364,-229.5 364,-323.5 484,-323.5 484,-229.5 364,-229.5"/>
</g>
<!-- host_reid_shorepi -->
<g id="node7" class="node">
<title>host_reid_shorepi</title>
<polygon fill="white" stroke="transparent" stroke-width="1.5" points="735.5,-323.5 530.5,-323.5 530.5,-229.5 735.5,-229.5 735.5,-323.5"/>
<polygon fill="none" stroke="black" points="532,-299.5 532,-322.5 735,-322.5 735,-299.5 532,-299.5"/>
<text text-anchor="start" x="612" y="-309.5" font-family="Helvetica,sans-Serif" font-weight="bold" font-size="10.00">shorepi</text>
<polygon fill="none" stroke="black" points="532,-276.5 532,-299.5 735,-299.5 735,-276.5 532,-276.5"/>
<text text-anchor="start" x="576.5" y="-285.5" font-family="Helvetica,sans-Serif" font-size="10.00">shorepi.reid.home.arpa</text>
<polygon fill="none" stroke="black" points="532,-253.5 532,-276.5 735,-276.5 735,-253.5 532,-253.5"/>
<text text-anchor="start" x="538" y="-262.5" font-family="Helvetica,sans-Serif" font-size="10.00">LAN 10.1.1.20</text>
<polygon fill="none" stroke="black" points="532,-230.5 532,-253.5 735,-253.5 735,-230.5 532,-230.5"/>
<text text-anchor="start" x="538" y="-239.5" font-family="Helvetica,sans-Serif" font-size="10.00">signalk • influxdb • grafana • app&#45;host</text>
<polygon fill="none" stroke="black" points="530.5,-229.5 530.5,-323.5 735.5,-323.5 735.5,-229.5 530.5,-229.5"/>
</g>
<!-- host_reid_zappi -->
<g id="node8" class="node">
<title>host_reid_zappi</title>
<polygon fill="white" stroke="transparent" points="920.5,-323.5 771.5,-323.5 771.5,-229.5 920.5,-229.5 920.5,-323.5"/>
<polygon fill="none" stroke="black" points="773,-299.5 773,-322.5 920,-322.5 920,-299.5 773,-299.5"/>
<text text-anchor="start" x="830.5" y="-309.5" font-family="Helvetica,sans-Serif" font-weight="bold" font-size="10.00">zappi</text>
<polygon fill="none" stroke="black" points="773,-276.5 773,-299.5 920,-299.5 920,-276.5 773,-276.5"/>
<text text-anchor="start" x="794.5" y="-285.5" font-family="Helvetica,sans-Serif" font-size="10.00">zappi.reid.home.arpa</text>
<polygon fill="none" stroke="black" points="773,-253.5 773,-276.5 920,-276.5 920,-253.5 773,-253.5"/>
<text text-anchor="start" x="779" y="-262.5" font-family="Helvetica,sans-Serif" font-size="10.00">LAN 10.1.1.50</text>
<polygon fill="none" stroke="black" points="773,-230.5 773,-253.5 920,-253.5 920,-230.5 773,-230.5"/>
<text text-anchor="start" x="779" y="-239.5" font-family="Helvetica,sans-Serif" font-size="10.00">ev&#45;charger • energy&#45;device</text>
<polygon fill="none" stroke="black" points="771.5,-229.5 771.5,-323.5 920.5,-323.5 920.5,-229.5 771.5,-229.5"/>
</g>
<!-- site_reid -->
<g id="node9" class="node">
<title>site_reid</title>
<ellipse fill="none" stroke="black" stroke-dasharray="5,2" cx="739" cy="-544" rx="51.74" ry="20.51"/>
<text text-anchor="middle" x="739" y="-541.5" font-family="Helvetica,sans-Serif" font-size="10.00">10.1.1.0/24</text>
</g>
<!-- site_reid&#45;&gt;host_reid_mudpi -->
<g id="edge2" class="edge">
<title>site_reid&#45;&gt;host_reid_mudpi</title>
<path fill="none" stroke="black" d="M695.21,-533.09C591.02,-509.5 337,-452 337,-452 337,-452 273.47,-386.79 224.08,-336.09"/>
</g>
<!-- site_reid&#45;&gt;host_reid_abbhub -->
<g id="edge1" class="edge">
<title>site_reid&#45;&gt;host_reid_abbhub</title>
<path fill="none" stroke="black" d="M772.03,-527.97C828.83,-502.13 939,-452 939,-452 939,-452 977.58,-375.5 1003.65,-323.8"/>
</g>
<!-- site_reid&#45;&gt;host_reid_printserver -->
<g id="edge3" class="edge">
<title>site_reid&#45;&gt;host_reid_printserver</title>
<path fill="none" stroke="black" d="M782.13,-532.56C880.9,-508.66 1115,-452 1115,-452 1115,-452 1154.45,-375.5 1181.12,-323.8"/>
</g>
<!-- site_reid&#45;&gt;host_reid_router -->
<g id="edge4" class="edge">
<title>site_reid&#45;&gt;host_reid_router</title>
<path fill="none" stroke="black" d="M703.69,-528.78C640.12,-503.19 513,-452 513,-452 513,-452 478.67,-384.69 452.65,-333.67"/>
</g>
<!-- site_reid&#45;&gt;host_reid_shorepi -->
<g id="edge5" class="edge">
<title>site_reid&#45;&gt;host_reid_shorepi</title>
<path fill="none" stroke="black" d="M731.21,-523.48C714.52,-481.68 674.95,-382.58 651.45,-323.71"/>
</g>
<!-- site_reid&#45;&gt;host_reid_zappi -->
<g id="edge6" class="edge">
<title>site_reid&#45;&gt;host_reid_zappi</title>
<path fill="none" stroke="black" d="M746.87,-523.48C763.71,-481.68 803.65,-382.58 827.38,-323.71"/>
</g>
<!-- host_barkingowl_weatherstation -->
<g id="node11" class="node">
<title>host_barkingowl_weatherstation</title>
<polygon fill="white" stroke="transparent" stroke-width="1.2" points="1742.5,-122.5 1541.5,-122.5 1541.5,-28.5 1742.5,-28.5 1742.5,-122.5"/>
<polygon fill="none" stroke="black" points="1543,-98.5 1543,-121.5 1742,-121.5 1742,-98.5 1543,-98.5"/>
<text text-anchor="start" x="1600" y="-108.5" font-family="Helvetica,sans-Serif" font-weight="bold" font-size="10.00">weatherstation</text>
<polygon fill="none" stroke="black" points="1543,-75.5 1543,-98.5 1742,-98.5 1742,-75.5 1543,-75.5"/>
<text text-anchor="start" x="1549" y="-84.5" font-family="Helvetica,sans-Serif" font-size="10.00">weatherstation.barkingowl.home.arpa</text>
<polygon fill="none" stroke="black" points="1543,-52.5 1543,-75.5 1742,-75.5 1742,-52.5 1543,-52.5"/>
<text text-anchor="start" x="1549" y="-61.5" font-family="Helvetica,sans-Serif" font-size="10.00">LAN 192.168.0.50</text>
<polygon fill="none" stroke="black" points="1543,-29.5 1543,-52.5 1742,-52.5 1742,-29.5 1543,-29.5"/>
<text text-anchor="start" x="1549" y="-38.5" font-family="Helvetica,sans-Serif" font-size="10.00">weather</text>
<polygon fill="none" stroke="black" points="1541.5,-28.5 1541.5,-122.5 1742.5,-122.5 1742.5,-28.5 1541.5,-28.5"/>
</g>
<!-- site_barkingowl -->
<g id="node12" class="node">
<title>site_barkingowl</title>
<ellipse fill="none" stroke="black" stroke-dasharray="5,2" cx="1523" cy="-276.5" rx="64.19" ry="20.51"/>
<text text-anchor="middle" x="1523" y="-274" font-family="Helvetica,sans-Serif" font-size="10.00">192.168.0.0/24</text>
</g>
<!-- site_barkingowl&#45;&gt;host_barkingowl_shedpi -->
<g id="edge7" class="edge">
<title>site_barkingowl&#45;&gt;host_barkingowl_shedpi</title>
<path fill="none" stroke="black" d="M1511.28,-256.06C1494.53,-228.28 1463.04,-176.07 1438.33,-135.08"/>
</g>
<!-- site_barkingowl&#45;&gt;host_barkingowl_weatherstation -->
<g id="edge8" class="edge">
<title>site_barkingowl&#45;&gt;host_barkingowl_weatherstation</title>
<path fill="none" stroke="black" d="M1534.63,-256.06C1552.99,-225.35 1589.21,-164.77 1614.49,-122.51"/>
</g>
<!-- host_trilogy_signalk -->
<g id="node14" class="node">
<title>host_trilogy_signalk</title>
<polygon fill="white" stroke="transparent" stroke-width="1.5" points="2437,-122.5 2299,-122.5 2299,-28.5 2437,-28.5 2437,-122.5"/>
<polygon fill="none" stroke="black" points="2300,-98.5 2300,-121.5 2436,-121.5 2436,-98.5 2300,-98.5"/>
<text text-anchor="start" x="2347" y="-108.5" font-family="Helvetica,sans-Serif" font-weight="bold" font-size="10.00">signalk</text>
<polygon fill="none" stroke="black" points="2300,-75.5 2300,-98.5 2436,-98.5 2436,-75.5 2300,-75.5"/>
<text text-anchor="start" x="2306" y="-84.5" font-family="Helvetica,sans-Serif" font-size="10.00">signalk.trilogy.home.arpa</text>
<polygon fill="none" stroke="black" points="2300,-52.5 2300,-75.5 2436,-75.5 2436,-52.5 2300,-52.5"/>
<text text-anchor="start" x="2306" y="-61.5" font-family="Helvetica,sans-Serif" font-size="10.00">LAN 192.168.98.20</text>
<polygon fill="none" stroke="black" points="2300,-29.5 2300,-52.5 2436,-52.5 2436,-29.5 2300,-29.5"/>
<text text-anchor="start" x="2306" y="-38.5" font-family="Helvetica,sans-Serif" font-size="10.00">signalk</text>
<polygon fill="none" stroke="black" points="2299,-28.5 2299,-122.5 2437,-122.5 2437,-28.5 2299,-28.5"/>
</g>
<!-- site_trilogy -->
<g id="node15" class="node">
<title>site_trilogy</title>
<ellipse fill="none" stroke="black" stroke-dasharray="5,2" cx="2263" cy="-276.5" rx="68.68" ry="20.51"/>
<text text-anchor="middle" x="2263" y="-274" font-family="Helvetica,sans-Serif" font-size="10.00">192.168.98.0/24</text>
</g>
<!-- site_trilogy&#45;&gt;host_trilogy_boatdns -->
<g id="edge9" class="edge">
<title>site_trilogy&#45;&gt;host_trilogy_boatdns</title>
<path fill="none" stroke="black" d="M2252.64,-256.06C2237.85,-228.28 2210.04,-176.07 2188.21,-135.08"/>
</g>
<!-- site_trilogy&#45;&gt;host_trilogy_signalk -->
<g id="edge10" class="edge">
<title>site_trilogy&#45;&gt;host_trilogy_signalk</title>
<path fill="none" stroke="black" d="M2273.26,-256.06C2289.46,-225.35 2321.42,-164.77 2343.72,-122.51"/>
</g>
<!-- site_testboat -->
<g id="node17" class="node">
<title>site_testboat</title>
<ellipse fill="none" stroke="black" stroke-dasharray="5,2" cx="2575" cy="-276.5" rx="68.68" ry="20.51"/>
<text text-anchor="middle" x="2575" y="-274" font-family="Helvetica,sans-Serif" font-size="10.00">192.168.97.0/24</text>
</g>
<!-- site_testboat&#45;&gt;host_testboat_labdns -->
<g id="edge11" class="edge">
<title>site_testboat&#45;&gt;host_testboat_labdns</title>
<path fill="none" stroke="black" d="M2575,-255.69C2575,-227.87 2575,-176.06 2575,-135.28"/>
</g>
</g>
</svg>
